<svg width="428" height="351" viewBox="0 0 428 351" fill="none" xmlns="http://www.w3.org/2000/svg">
<g opacity="0.9" filter="url(#filter0_dddddiii_48_235)">
<g filter="url(#filter1_dddd_48_235)">
<g filter="url(#filter2_d_48_235)">
<path d="M376.543 165.55C376.543 256.981 303.707 331.1 213.86 331.1C124.013 331.1 51.1777 256.981 51.1777 165.55C51.1777 74.1194 128.452 16.555 213.86 0C297.642 20.6938 376.543 74.1194 376.543 165.55Z" fill="white"/>
<path d="M372.543 165.55C372.543 254.838 301.433 327.1 213.86 327.1C126.288 327.1 55.1777 254.838 55.1777 165.55C55.1777 77.175 129.618 20.6909 213.757 4.09592C296.654 24.8017 372.543 77.2847 372.543 165.55Z" stroke="#575761" stroke-width="8"/>
</g>
<path d="M339.76 161.411C339.76 234.824 282.739 293.801 213.047 293.801C143.355 293.801 86.334 234.824 86.334 161.411C86.334 125.052 100.371 98.184 123.247 77.2469C145.897 56.5155 177.383 41.4687 213.048 29.4304C247.514 41.0592 279.003 56.1032 301.954 76.9484C325.18 98.0435 339.76 125.135 339.76 161.411Z" fill="white" stroke="#575761" stroke-width="15"/>
<g filter="url(#filter3_d_48_235)">
<path d="M48.1887 320.072L6.08363 298.63H132.269V342.383H6.06104L7.82718 341.472L7.82979 341.471L48.1883 320.963L49.0646 320.518L48.1887 320.072Z" fill="#575761" stroke="#080606"/>
<path d="M132.252 341.865L79.5633 325.754H132.252V341.865Z" fill="#575761" stroke="#080606"/>
<path d="M380.349 320.074L379.493 320.518L380.349 320.961L421.67 342.383H297.854V298.63H421.673L419.693 299.658L419.693 299.658L380.349 320.074Z" fill="#575761" stroke="#080606"/>
<path d="M297.87 341.861V325.754H349.565L297.87 341.861Z" fill="#575761" stroke="#080606"/>
<g clip-path="url(#clip0_48_235)" filter="url(#filter4_ddd_48_235)">
<path d="M196.212 170.584C194.555 170.584 193.212 172.181 193.212 174.15V178.86C193.212 180.83 194.555 182.427 196.212 182.427C197.869 182.427 199.212 180.83 199.212 178.86V174.15C199.212 172.181 197.869 170.584 196.212 170.584Z" fill="#575761"/>
<path d="M231.788 170.584C230.131 170.584 228.788 172.181 228.788 174.15V178.86C228.788 180.83 230.131 182.427 231.788 182.427C233.445 182.427 234.788 180.83 234.788 178.86V174.15C234.787 172.181 233.444 170.584 231.788 170.584Z" fill="#575761"/>
<path d="M223.01 190.088C221.838 188.695 219.939 188.696 218.767 190.088C217.494 191.603 215.8 192.436 214 192.436C212.199 192.436 210.506 191.603 209.232 190.088C208.061 188.696 206.161 188.696 204.99 190.088C203.818 191.481 203.818 193.74 204.99 195.132C207.396 197.993 210.596 199.569 214 199.569C217.403 199.569 220.603 197.993 223.01 195.132C224.182 193.739 224.182 191.481 223.01 190.088Z" fill="#575761"/>
<path d="M214 239.058C209.589 239.058 206 243.324 206 248.568C206 253.812 209.589 258.078 214 258.078C218.411 258.078 222 253.812 222 248.568C222 243.324 218.411 239.058 214 239.058ZM214 250.945C212.897 250.945 212 249.879 212 248.568C212 247.257 212.898 246.191 214 246.191C215.103 246.191 216 247.257 216 248.568C216 249.879 215.103 250.945 214 250.945Z" fill="#575761"/>
<path d="M285.065 261.644C283.408 261.644 282.065 263.241 282.065 265.211V270.172C282.065 271.107 281.418 271.868 280.623 271.868H231V245.604C232.176 245.984 233.309 246.19 234.367 246.19C236.576 246.19 238.458 245.343 239.812 243.74C241.167 242.134 241.884 239.897 241.884 237.272C241.884 234.652 241.146 231.647 239.819 228.575C242.743 228.393 245.398 226.994 247.436 224.801H259.304C271.854 224.801 282.065 236.893 282.065 251.755C282.065 253.724 283.409 255.321 285.065 255.321C286.722 255.321 288.065 253.724 288.065 251.755C288.065 232.96 275.163 217.669 259.304 217.669H251.091C251.35 216.49 251.491 215.254 251.491 213.98C251.491 209.664 249.9 205.786 247.383 203.109C252.06 197.738 255.447 191.588 257.389 185.034C263.514 182.334 267.891 175.337 267.891 167.147C267.891 159.837 264.405 153.477 259.3 150.275V105.032C266.941 101.581 272.099 92.875 272.099 82.9747C272.099 69.9554 263.163 59.3634 252.179 59.3634C250.552 59.3634 248.955 59.5923 247.403 60.0469C244.257 51.6202 237.159 46 229.184 46C223.366 46 217.95 48.9808 214.217 54.0281C210.483 48.9808 205.068 46 199.249 46C191.209 46 184.103 51.6644 180.986 60.1675C179.311 59.6333 177.584 59.3639 175.822 59.3639C164.838 59.3639 155.902 69.9558 155.902 82.9752C155.902 92.8754 161.059 101.582 168.7 105.032V112.097C168.7 114.067 170.044 115.664 171.701 115.664C173.357 115.664 174.701 114.067 174.701 112.097V105.985H181.599C183.256 105.985 184.599 104.388 184.599 102.419C184.599 100.449 183.256 98.8524 181.599 98.8524H172.099C166.079 96.8824 161.902 90.413 161.902 82.9752C161.902 73.8886 168.147 66.4963 175.822 66.4963C177.06 66.4963 178.273 66.6875 179.448 67.0643C179.371 67.9075 179.33 68.7572 179.33 69.6113C179.33 71.5809 180.673 73.1778 182.33 73.1778C183.987 73.1778 185.33 71.5809 185.33 69.6113C185.33 68.2124 185.483 66.8335 185.774 65.4956H185.772C187.352 58.2112 192.88 53.1325 199.25 53.1325C204.426 53.1325 209.146 56.5051 211.566 61.9346C212.087 63.1014 213.106 63.8309 214.217 63.8309C215.328 63.8309 216.348 63.1014 216.868 61.9346C219.289 56.5051 224.009 53.1325 229.185 53.1325C235.516 53.1325 241.053 58.1902 242.652 65.431C242.657 65.4528 242.667 65.4956 242.667 65.4956C242.957 66.8308 243.105 68.2074 243.105 69.6113C243.105 71.5809 244.448 73.1778 246.105 73.1778C247.762 73.1778 249.105 71.5809 249.105 69.6113C249.105 68.7121 249.059 67.8215 248.974 66.9387C250.017 66.6479 251.088 66.4959 252.179 66.4959C259.854 66.4959 266.099 73.8882 266.099 82.9747C266.099 90.4125 261.922 96.882 255.903 98.852H239.601C237.944 98.852 236.601 100.449 236.601 102.418C236.601 104.388 237.944 105.985 239.601 105.985H253.301V126.362H233.801V118.618C233.801 116.648 232.458 115.051 230.801 115.051C229.144 115.051 227.801 116.648 227.801 118.618V126.362H217.001V118.618C217.001 116.648 215.657 115.051 214.001 115.051C212.344 115.051 211.001 116.648 211.001 118.618V126.362H200.201V118.618C200.201 116.648 198.858 115.051 197.201 115.051C195.544 115.051 194.201 116.648 194.201 118.618V126.362H174.701V124.935C174.701 122.965 173.357 121.368 171.701 121.368C170.044 121.368 168.7 122.965 168.7 124.935V142.529V142.803V150.274C163.596 153.476 160.11 159.836 160.11 167.146C160.11 175.336 164.486 182.334 170.612 185.033C172.553 191.587 175.941 197.736 180.617 203.108C178.1 205.785 176.509 209.663 176.509 213.979C176.509 215.253 176.65 216.489 176.91 217.668H168.696C152.837 217.668 139.935 232.959 139.935 251.754V270.171C139.935 275.039 143.274 279 147.377 279H280.623C284.727 279 288.065 275.039 288.065 270.171V265.21C288.065 263.241 286.722 261.644 285.065 261.644ZM259.3 171.894V159.175C260.907 161.292 261.891 164.083 261.891 167.147C261.891 170.289 260.856 173.147 259.175 175.281C259.257 174.158 259.3 173.028 259.3 171.894ZM166.11 167.147C166.11 164.084 167.093 161.292 168.701 159.175V171.894C168.701 173.028 168.744 174.158 168.826 175.281C167.144 173.146 166.11 170.288 166.11 167.147ZM235.576 238.688C235.378 238.923 234.937 239.058 234.367 239.058C231.952 239.058 227.579 236.763 223.252 231.638C220.651 228.556 218.921 225.46 217.949 222.858L223.933 229.946C224.518 230.639 225.284 230.986 226.051 230.986C226.82 230.986 227.59 230.637 228.176 229.938C229.346 228.542 229.342 226.284 228.169 224.894L222.602 218.3C222.706 218.277 222.809 218.257 222.913 218.234C224.956 219.434 227.295 221.362 229.625 224.123C233.949 229.245 235.884 234.418 235.884 237.273C235.884 237.941 235.772 238.456 235.576 238.688ZM239.163 221.463H235.73C235.141 220.65 234.519 219.85 233.86 219.07C232.812 217.828 231.721 216.691 230.61 215.663C234.896 213.759 239.004 211.11 242.733 207.805C244.396 209.155 245.491 211.418 245.491 213.979C245.49 218.106 242.652 221.463 239.163 221.463ZM253.299 156.794H252.277C244.557 156.794 237.441 153.709 231.741 148.536C232.283 147.833 232.808 147.11 233.315 146.369H253.299V156.794ZM174.7 133.494H253.299V139.237H174.7V133.494ZM174.701 146.37H225.062C219.048 152.84 211.071 156.794 202.324 156.794H191.478C185.562 156.794 179.795 154.981 174.701 151.535V146.37H174.701ZM174.7 171.894V159.546C179.929 162.423 185.641 163.927 191.477 163.927H202.323C211.773 163.927 220.463 160.009 227.303 153.475C234.143 160.007 242.829 163.927 252.277 163.927H253.299V171.894C253.299 182.217 249.03 192.224 241.276 200.07C233.775 207.661 224.15 212.016 214.868 212.016H213.132C203.85 212.016 194.225 207.662 186.724 200.07C178.97 192.224 174.7 182.217 174.7 171.894ZM182.509 213.98C182.509 211.419 183.604 209.155 185.267 207.806C188.995 211.111 193.104 213.759 197.39 215.664C196.279 216.692 195.188 217.828 194.14 219.071C193.481 219.851 192.859 220.652 192.269 221.464H188.837V221.464C185.348 221.463 182.509 218.106 182.509 213.98ZM198.375 224.123C200.704 221.362 203.043 219.434 205.086 218.233C205.19 218.257 205.294 218.277 205.398 218.299L199.831 224.894C198.657 226.284 198.654 228.542 199.824 229.937C200.41 230.637 201.179 230.986 201.949 230.986C202.715 230.986 203.481 230.639 204.067 229.946L210.05 222.857C209.08 225.46 207.349 228.556 204.748 231.637C200.421 236.763 196.048 239.058 193.633 239.058C193.063 239.058 192.622 238.923 192.423 238.688C192.228 238.457 192.115 237.941 192.115 237.273C192.116 234.418 194.051 229.244 198.375 224.123ZM212 271.868C212 270.557 212.897 269.491 213.999 269.491C215.102 269.491 215.999 270.557 215.999 271.868H212ZM225 271.868H222C222 266.624 218.411 262.358 214 262.358C209.589 262.358 206 266.624 206 271.868H147.377C146.582 271.868 145.935 271.107 145.935 270.172V251.755C145.935 236.893 156.145 224.802 168.696 224.802H180.565C182.603 226.994 185.257 228.393 188.181 228.575C186.854 231.647 186.116 234.653 186.116 237.273C186.116 239.898 186.832 242.134 188.189 243.741C189.542 245.343 191.424 246.19 193.633 246.19C198.155 246.19 204.037 242.55 208.983 236.69C210.994 234.308 212.689 231.741 214 229.174C215.311 231.741 217.006 234.308 219.017 236.69C220.917 238.94 222.955 240.86 225 242.375V271.868Z" fill="#575761"/>
<path d="M175.804 240.151C175.979 239.961 176.272 239.948 176.461 240.125C176.651 240.301 176.663 240.597 176.488 240.787L172.679 244.944L172.673 244.952C172.207 245.52 171.888 246.045 171.745 246.526C171.619 246.95 171.637 247.336 171.825 247.672C171.924 247.853 171.892 248.074 171.76 248.22L169.951 250.194C169.774 249.999 169.633 249.841 169.54 249.738C169.497 249.681 169.448 249.625 169.397 249.572L169.393 249.576C169.369 249.549 169.343 249.525 169.316 249.5L170.862 247.812C170.681 247.324 170.683 246.805 170.85 246.253C171.029 245.654 171.41 245.016 171.957 244.351C171.969 244.335 171.979 244.318 171.994 244.304L175.8 240.147L175.804 240.151ZM167.623 251.285C167.452 251.092 167.469 250.795 167.66 250.622C167.851 250.45 168.146 250.467 168.317 250.659C170.232 252.822 176.15 259.22 177.79 261.612C179.953 264.7 176.604 265.672 175.493 264.548C172.718 261.842 166.826 254.943 164.236 252.017C163.304 252.415 162.399 252.477 161.489 252.214C160.511 251.933 159.552 251.275 158.58 250.263L158.568 250.251C157.827 249.463 157.247 248.686 156.828 247.916C156.399 247.125 156.136 246.341 156.043 245.563C155.943 244.726 156.02 243.947 156.244 243.255C156.507 242.443 156.973 241.756 157.583 241.245C158.197 240.732 158.952 240.4 159.794 240.297C160.494 240.213 161.257 240.285 162.047 240.545C163.139 240.904 164.413 241.797 165.469 242.942C166.248 243.785 166.915 244.771 167.312 245.787C167.725 246.846 167.851 247.941 167.52 248.967C167.324 249.574 166.97 250.144 166.421 250.659C166.232 250.836 165.939 250.823 165.764 250.635C165.589 250.444 165.601 250.149 165.788 249.972C166.213 249.572 166.486 249.135 166.635 248.673C166.891 247.88 166.783 246.999 166.445 246.134C166.091 245.227 165.491 244.341 164.787 243.58C163.835 242.55 162.706 241.752 161.754 241.438C161.101 241.224 160.476 241.163 159.904 241.233C159.241 241.315 158.647 241.571 158.173 241.971C157.697 242.371 157.333 242.911 157.123 243.553C156.942 244.113 156.879 244.757 156.962 245.453C157.042 246.109 157.268 246.78 157.638 247.465C158.026 248.169 158.56 248.881 159.245 249.609L159.249 249.615C160.108 250.508 160.932 251.082 161.748 251.316C162.519 251.537 163.304 251.451 164.124 251.039C164.311 250.93 164.553 250.967 164.702 251.135C167.229 253.989 173.375 261.171 176.097 263.832C177.279 264.318 177.934 263.719 177.369 262.663C176.488 261.013 168.919 252.754 167.623 251.285ZM165.17 255.411L159.237 261.883C159.225 261.896 159.215 261.908 159.2 261.92C158.334 262.864 159.868 264.238 160.82 263.319L166.582 257.031L167.2 257.739L161.483 263.978C161.471 263.992 161.459 264.005 161.442 264.019C161.101 264.308 160.757 264.497 160.409 264.575C160.051 264.657 159.699 264.62 159.361 264.46C159.304 264.437 159.251 264.409 159.204 264.366L158.385 263.6C158.372 263.588 158.36 263.578 158.348 263.564C158.031 263.194 157.88 262.8 157.921 262.384C157.959 261.99 158.167 261.606 158.56 261.237L164.549 254.701L165.17 255.411ZM171.387 251.788L171.739 251.404C171.914 251.213 172.209 251.201 172.396 251.377C172.584 251.554 172.598 251.849 172.423 252.04L172.016 252.483L171.387 251.788ZM177.251 241.524C177.426 241.333 177.719 241.321 177.908 241.497C178.097 241.674 178.109 241.969 177.934 242.16L174.596 245.805C174.421 245.996 174.128 246.009 173.939 245.832C173.749 245.656 173.737 245.36 173.912 245.169L177.251 241.524ZM178.695 242.872C178.87 242.681 179.163 242.669 179.352 242.845C179.542 243.022 179.554 243.317 179.379 243.508L176.042 247.151C175.867 247.342 175.574 247.354 175.385 247.178C175.196 247.001 175.184 246.706 175.359 246.515L178.695 242.872ZM180.193 244.273C180.368 244.082 180.661 244.07 180.85 244.246C181.039 244.423 181.051 244.72 180.876 244.909L177.068 249.067C177.053 249.082 177.039 249.094 177.025 249.108C176.158 249.95 175.33 250.436 174.539 250.573C173.68 250.723 172.893 250.477 172.171 249.841C171.977 249.671 171.959 249.373 172.126 249.18C172.295 248.985 172.59 248.967 172.781 249.135C173.279 249.574 173.812 249.746 174.376 249.646C174.982 249.541 175.65 249.137 176.378 248.429L176.382 248.425L180.189 244.271L180.193 244.273Z" fill="black"/>
</g>
<path d="M217.088 326.614L217.07 326.613L217.051 326.614L74.2256 331.828V283.132L214.502 270.99L355.898 283.133V331.827L217.088 326.614Z" fill="#575761" stroke="#080606"/>
</g>
</g>
<path d="M168.501 289.186C168.661 289.186 168.828 289.2 169.001 289.226C169.175 289.253 169.335 289.3 169.481 289.366C169.628 289.433 169.748 289.526 169.841 289.646C169.948 289.766 170.001 289.926 170.001 290.126C170.001 290.313 169.948 290.466 169.841 290.586C169.735 290.706 169.601 290.8 169.441 290.866C169.295 290.933 169.128 290.98 168.941 291.006C168.768 291.033 168.615 291.046 168.481 291.046H161.081V289.186H168.501ZM168.481 292.146C168.801 292.146 169.115 292.113 169.421 292.046C169.741 291.966 170.028 291.846 170.281 291.686C170.535 291.526 170.735 291.32 170.881 291.066C171.041 290.8 171.121 290.486 171.121 290.126C171.121 289.753 171.048 289.433 170.901 289.166C170.755 288.9 170.555 288.686 170.301 288.526C170.061 288.366 169.781 288.253 169.461 288.186C169.155 288.106 168.835 288.066 168.501 288.066H159.981V292.146H168.481ZM170.301 293.046C170.115 293.153 169.908 293.233 169.681 293.286C169.455 293.34 169.241 293.393 169.041 293.446C169.788 294.326 170.535 295.193 171.281 296.046C172.041 296.9 172.801 297.766 173.561 298.646H171.941L167.321 293.346H159.981V298.646H158.741V286.846H168.501C169.048 286.846 169.555 286.906 170.021 287.026C170.501 287.146 170.908 287.34 171.241 287.606C171.588 287.873 171.855 288.213 172.041 288.626C172.241 289.04 172.341 289.54 172.341 290.126C172.341 290.86 172.175 291.466 171.841 291.946C171.508 292.413 171.001 292.78 170.321 293.046H170.301ZM173.461 290.126C173.461 289.366 173.341 288.713 173.101 288.166C172.861 287.606 172.521 287.146 172.081 286.786C171.641 286.426 171.115 286.16 170.501 285.986C169.901 285.813 169.235 285.726 168.501 285.726H157.661V299.766H161.081V294.446H166.801L171.401 299.766H176.001L170.961 293.986C172.628 293.253 173.461 291.966 173.461 290.126ZM157.161 300.266V285.226H168.501C169.021 285.226 169.521 285.266 170.001 285.346C170.481 285.413 170.961 285.56 171.441 285.786C171.935 286.013 172.441 286.34 172.961 286.766C173.495 287.193 174.061 287.76 174.661 288.466C175.048 288.853 175.348 289.373 175.561 290.026C175.788 290.666 175.901 291.366 175.901 292.126C175.901 293.006 175.708 293.786 175.321 294.466C174.948 295.146 174.401 295.7 173.681 296.126C174.095 296.606 174.528 297.106 174.981 297.626C175.435 298.146 175.888 298.673 176.341 299.206C176.795 299.726 177.241 300.24 177.681 300.746C178.135 301.266 178.561 301.753 178.961 302.206H173.201L171.181 300.266L168.261 296.886H163.521V302.206H159.221L157.161 300.266ZM193.087 292.146V293.346H182.907V297.426H195.167V298.646H181.667V286.846H195.147V288.066H182.907V292.146H193.087ZM196.267 289.186V285.726H180.547V299.766H196.287V296.306H184.007V294.446H194.187V291.046H184.007V289.186H196.267ZM180.047 300.266V285.226H196.767L198.707 287.286V291.626H195.647L196.627 292.606V295.806L198.727 297.866V302.206H182.107L180.047 300.266ZM203.081 295.906C203.508 296.32 203.981 296.633 204.501 296.846C205.021 297.06 205.561 297.213 206.121 297.306C206.681 297.386 207.255 297.433 207.841 297.446C208.428 297.446 208.995 297.446 209.541 297.446C209.741 297.446 210.008 297.44 210.341 297.426C210.688 297.413 211.055 297.386 211.441 297.346C211.841 297.293 212.241 297.226 212.641 297.146C213.041 297.053 213.401 296.933 213.721 296.786C214.055 296.64 214.321 296.466 214.521 296.266C214.735 296.053 214.841 295.8 214.841 295.506C214.841 295.213 214.728 294.96 214.501 294.746C214.288 294.52 214.008 294.326 213.661 294.166C213.315 294.006 212.921 293.873 212.481 293.766C212.055 293.646 211.628 293.56 211.201 293.506C210.775 293.44 210.375 293.393 210.001 293.366C209.641 293.34 209.348 293.326 209.121 293.326H209.141C208.821 293.313 208.428 293.28 207.961 293.226C207.495 293.173 207.008 293.093 206.501 292.986C205.995 292.88 205.488 292.746 204.981 292.586C204.475 292.413 204.021 292.206 203.621 291.966C203.221 291.726 202.895 291.446 202.641 291.126C202.388 290.793 202.261 290.413 202.261 289.986C202.261 289.52 202.381 289.12 202.621 288.786C202.875 288.453 203.195 288.173 203.581 287.946C203.981 287.706 204.428 287.52 204.921 287.386C205.415 287.24 205.915 287.126 206.421 287.046C206.928 286.966 207.408 286.913 207.861 286.886C208.328 286.86 208.721 286.846 209.041 286.846C209.561 286.846 210.088 286.873 210.621 286.926C211.168 286.966 211.701 287.046 212.221 287.166C212.741 287.286 213.248 287.453 213.741 287.666C214.235 287.866 214.688 288.126 215.101 288.446L214.041 289.206C213.655 288.94 213.248 288.733 212.821 288.586C212.395 288.426 211.955 288.306 211.501 288.226C211.048 288.146 210.588 288.1 210.121 288.086C209.655 288.06 209.201 288.046 208.761 288.046C208.455 288.046 208.035 288.066 207.501 288.106C206.981 288.146 206.461 288.233 205.941 288.366C205.435 288.486 204.995 288.68 204.621 288.946C204.248 289.2 204.061 289.546 204.061 289.986C204.061 290.413 204.241 290.76 204.601 291.026C204.961 291.28 205.435 291.486 206.021 291.646C206.608 291.793 207.275 291.913 208.021 292.006C208.781 292.086 209.555 292.173 210.341 292.266C211.128 292.36 211.895 292.473 212.641 292.606C213.401 292.726 214.075 292.906 214.661 293.146C215.248 293.373 215.721 293.68 216.081 294.066C216.441 294.44 216.621 294.92 216.621 295.506C216.621 295.92 216.495 296.286 216.241 296.606C216.001 296.926 215.681 297.206 215.281 297.446C214.881 297.673 214.428 297.866 213.921 298.026C213.428 298.173 212.928 298.293 212.421 298.386C211.928 298.48 211.455 298.546 211.001 298.586C210.548 298.626 210.175 298.646 209.881 298.646H208.381C207.835 298.646 207.261 298.626 206.661 298.586C206.061 298.546 205.475 298.46 204.901 298.326C204.328 298.18 203.781 297.98 203.261 297.726C202.741 297.473 202.281 297.126 201.881 296.686L203.081 295.906ZM200.221 296.266C200.755 297.133 201.388 297.806 202.121 298.286C202.855 298.753 203.648 299.1 204.501 299.326C205.355 299.54 206.235 299.666 207.141 299.706C208.061 299.746 208.975 299.766 209.881 299.766C210.281 299.766 210.755 299.74 211.301 299.686C211.848 299.62 212.415 299.52 213.001 299.386C213.588 299.253 214.161 299.08 214.721 298.866C215.295 298.64 215.801 298.373 216.241 298.066C216.695 297.746 217.055 297.38 217.321 296.966C217.601 296.54 217.741 296.053 217.741 295.506C217.741 294.853 217.595 294.3 217.301 293.846C217.021 293.38 216.648 292.993 216.181 292.686C215.728 292.366 215.201 292.113 214.601 291.926C214.015 291.726 213.408 291.573 212.781 291.466C212.155 291.36 211.541 291.28 210.941 291.226C210.341 291.173 209.808 291.126 209.341 291.086C209.181 291.073 208.875 291.046 208.421 291.006C207.968 290.953 207.501 290.886 207.021 290.806C206.541 290.713 206.115 290.6 205.741 290.466C205.368 290.333 205.181 290.173 205.181 289.986C205.181 289.773 205.355 289.613 205.701 289.506C206.048 289.4 206.441 289.32 206.881 289.266C207.335 289.213 207.768 289.186 208.181 289.186C208.608 289.173 208.895 289.166 209.041 289.166C209.468 289.166 209.901 289.186 210.341 289.226C210.781 289.253 211.208 289.32 211.621 289.426C212.048 289.533 212.448 289.686 212.821 289.886C213.208 290.086 213.561 290.346 213.881 290.666L216.801 288.706C216.295 288.013 215.721 287.473 215.081 287.086C214.441 286.686 213.761 286.386 213.041 286.186C212.321 285.986 211.568 285.86 210.781 285.806C210.008 285.753 209.228 285.726 208.441 285.726C208.028 285.726 207.555 285.76 207.021 285.826C206.501 285.88 205.968 285.973 205.421 286.106C204.888 286.24 204.361 286.413 203.841 286.626C203.335 286.84 202.881 287.106 202.481 287.426C202.081 287.746 201.761 288.12 201.521 288.546C201.281 288.96 201.161 289.44 201.161 289.986C201.161 290.613 201.315 291.153 201.621 291.606C201.928 292.06 202.335 292.446 202.841 292.766C203.348 293.086 203.921 293.346 204.561 293.546C205.201 293.746 205.848 293.913 206.501 294.046C207.168 294.166 207.808 294.266 208.421 294.346C209.048 294.413 209.595 294.473 210.061 294.526C210.195 294.54 210.455 294.566 210.841 294.606C211.241 294.646 211.655 294.706 212.081 294.786C212.508 294.853 212.888 294.946 213.221 295.066C213.555 295.186 213.721 295.333 213.721 295.506C213.721 295.653 213.615 295.78 213.401 295.886C213.188 295.98 212.915 296.06 212.581 296.126C212.248 296.18 211.881 296.22 211.481 296.246C211.081 296.273 210.688 296.293 210.301 296.306C209.928 296.32 209.588 296.326 209.281 296.326C208.988 296.326 208.781 296.326 208.661 296.326C208.155 296.326 207.655 296.306 207.161 296.266C206.668 296.213 206.188 296.12 205.721 295.986C205.255 295.84 204.815 295.64 204.401 295.386C203.988 295.133 203.615 294.793 203.281 294.366L200.221 296.266ZM203.121 293.866L202.161 292.886C201.695 292.54 201.328 292.133 201.061 291.666C200.795 291.186 200.661 290.626 200.661 289.986C200.661 289.373 200.788 288.833 201.041 288.366C201.308 287.886 201.655 287.473 202.081 287.126C202.508 286.78 202.995 286.486 203.541 286.246C204.088 285.993 204.648 285.793 205.221 285.646C205.795 285.5 206.361 285.393 206.921 285.326C207.481 285.26 207.988 285.226 208.441 285.226C209.228 285.226 210.021 285.253 210.821 285.306C211.621 285.346 212.401 285.466 213.161 285.666C213.935 285.866 214.675 286.173 215.381 286.586C216.088 287 216.748 287.58 217.361 288.326C217.775 288.74 218.101 289.086 218.341 289.366C218.581 289.633 218.768 289.86 218.901 290.046C219.048 290.233 219.155 290.386 219.221 290.506C219.288 290.613 219.355 290.713 219.421 290.806L216.861 292.526C216.928 292.593 217.001 292.653 217.081 292.706C217.175 292.746 217.301 292.833 217.461 292.966C217.621 293.1 217.828 293.293 218.081 293.546C218.348 293.786 218.701 294.133 219.141 294.586C219.461 294.92 219.715 295.346 219.901 295.866C220.088 296.386 220.181 296.933 220.181 297.506C220.181 298.106 220.035 298.64 219.741 299.106C219.448 299.573 219.068 299.98 218.601 300.326C218.135 300.673 217.601 300.966 217.001 301.206C216.401 301.446 215.795 301.64 215.181 301.786C214.568 301.933 213.968 302.04 213.381 302.106C212.808 302.173 212.308 302.206 211.881 302.206C211.095 302.206 210.295 302.206 209.481 302.206C208.668 302.206 207.868 302.14 207.081 302.006C206.308 301.873 205.555 301.653 204.821 301.346C204.088 301.04 203.415 300.573 202.801 299.946C202.281 299.466 201.841 299.046 201.481 298.686C201.135 298.313 200.835 297.98 200.581 297.686C200.341 297.38 200.135 297.1 199.961 296.846C199.801 296.593 199.648 296.346 199.501 296.106L203.121 293.866ZM235.352 292.146V293.346H225.172V297.426H237.432V298.646H223.932V286.846H237.412V288.066H225.172V292.146H235.352ZM238.532 289.186V285.726H222.812V299.766H238.552V296.306H226.272V294.446H236.452V291.046H226.272V289.186H238.532ZM222.312 300.266V285.226H239.032L240.972 287.286V291.626H237.912L238.892 292.606V295.806L240.992 297.866V302.206H224.372L222.312 300.266ZM255.099 289.186C255.259 289.186 255.419 289.2 255.579 289.226C255.753 289.253 255.906 289.3 256.039 289.366C256.186 289.433 256.306 289.526 256.399 289.646C256.493 289.766 256.539 289.926 256.539 290.126C256.539 290.313 256.486 290.466 256.379 290.586C256.286 290.706 256.166 290.8 256.019 290.866C255.873 290.933 255.713 290.98 255.539 291.006C255.366 291.033 255.213 291.046 255.079 291.046H247.679V289.186H255.099ZM255.079 292.146C255.399 292.146 255.713 292.113 256.019 292.046C256.339 291.966 256.619 291.846 256.859 291.686C257.099 291.526 257.293 291.32 257.439 291.066C257.586 290.8 257.659 290.486 257.659 290.126C257.659 289.753 257.586 289.44 257.439 289.186C257.306 288.92 257.119 288.706 256.879 288.546C256.653 288.373 256.379 288.253 256.059 288.186C255.753 288.106 255.433 288.066 255.099 288.066H246.559V292.146H255.079ZM246.559 298.646H245.339V286.846H255.099C255.646 286.846 256.153 286.913 256.619 287.046C257.086 287.166 257.486 287.36 257.819 287.626C258.166 287.88 258.433 288.22 258.619 288.646C258.819 289.06 258.919 289.553 258.919 290.126C258.919 290.86 258.746 291.466 258.399 291.946C258.066 292.413 257.566 292.78 256.899 293.046V293.066C256.593 293.173 256.166 293.253 255.619 293.306C255.073 293.36 254.459 293.4 253.779 293.426C253.113 293.44 252.413 293.446 251.679 293.446C250.946 293.446 250.246 293.44 249.579 293.426C248.913 293.4 248.313 293.38 247.779 293.366C247.246 293.353 246.839 293.346 246.559 293.346V298.646ZM260.039 290.126C260.039 289.366 259.919 288.713 259.679 288.166C259.439 287.606 259.099 287.146 258.659 286.786C258.233 286.426 257.713 286.16 257.099 285.986C256.499 285.813 255.833 285.726 255.099 285.726H244.219V299.766H247.679V294.446C247.999 294.446 248.413 294.453 248.919 294.466C249.439 294.48 249.999 294.5 250.599 294.526C251.199 294.54 251.826 294.546 252.479 294.546C253.133 294.546 253.759 294.533 254.359 294.506C254.973 294.48 255.539 294.433 256.059 294.366C256.579 294.3 257.013 294.206 257.359 294.086V294.066C258.239 293.693 258.906 293.186 259.359 292.546C259.813 291.906 260.039 291.1 260.039 290.126ZM243.719 300.266V285.226H255.099C255.619 285.226 256.126 285.266 256.619 285.346C257.126 285.413 257.633 285.566 258.139 285.806C258.659 286.033 259.193 286.36 259.739 286.786C260.286 287.213 260.859 287.78 261.459 288.486C261.846 288.873 262.113 289.386 262.259 290.026C262.406 290.666 262.479 291.366 262.479 292.126C262.479 293.206 262.226 294.1 261.719 294.806C261.226 295.513 260.493 296.08 259.519 296.506C259.253 296.6 258.933 296.68 258.559 296.746C258.199 296.8 257.799 296.846 257.359 296.886C256.919 296.926 256.453 296.953 255.959 296.966C255.479 296.98 254.993 296.986 254.499 296.986C253.779 296.986 253.066 296.986 252.359 296.986C251.653 296.986 250.906 296.98 250.119 296.966V302.206H245.779L243.719 300.266Z" fill="white"/>
<path d="M92.394 318.512L81.614 308.612V318.512H80.434V306.712H81.454L92.194 316.612V306.712H93.394V318.512H92.394ZM94.514 319.632V305.592H91.094V314.092L81.834 305.592H79.314V319.632H82.734V311.112L92.014 319.632H94.514ZM78.814 320.132V305.092H82.014L90.594 312.952V305.092H95.014L96.954 307.152V322.072H93.834L85.174 314.132V322.072H80.874L78.814 320.132ZM114.217 314.172L109.997 308.192L105.677 314.172H114.217ZM112.057 313.092H107.817L109.957 310.092L112.057 313.092ZM117.197 318.512L115.037 315.412H104.817C104.443 315.919 104.077 316.439 103.717 316.972C103.37 317.492 103.01 318.006 102.637 318.512H101.037C102.45 316.526 103.857 314.559 105.257 312.612C106.67 310.666 108.077 308.699 109.477 306.712H110.437L118.697 318.512H117.197ZM108.937 305.592L98.9368 319.632H103.177L105.377 316.532H114.417L116.597 319.632H120.837L111.037 305.592H108.937ZM113.277 307.152L123.677 322.072H118.357L116.337 320.132L115.517 318.972H107.617C107.457 319.212 107.277 319.466 107.077 319.732C106.89 319.999 106.697 320.266 106.497 320.532C106.31 320.812 106.123 321.079 105.937 321.332C105.75 321.599 105.577 321.846 105.417 322.072H100.077L97.9568 320.132L108.677 305.092H111.297L113.277 307.152ZM125.69 306.712H126.91V311.792L136.85 306.712H138.89L127.21 312.612C129.143 313.612 131.063 314.599 132.97 315.572C134.89 316.532 136.816 317.512 138.75 318.512H136.85L126.91 313.452V318.512H125.69V306.712ZM128.03 315.272L136.53 319.632L142.75 319.612C140.51 318.452 138.29 317.292 136.09 316.132C133.89 314.959 131.67 313.786 129.43 312.612L142.93 305.592H136.53C135.116 306.339 133.703 307.072 132.29 307.792C130.876 308.499 129.456 309.219 128.03 309.952V305.592H124.59V319.632H128.03V315.272ZM133.35 314.132L135.11 315.052C135.75 315.386 136.41 315.732 137.09 316.092C137.783 316.452 138.476 316.812 139.17 317.172C139.863 317.532 140.55 317.892 141.23 318.252C141.923 318.612 142.583 318.952 143.21 319.272L147.89 322.052L138.41 322.072L130.47 317.992V322.072H126.15L124.09 320.132V305.092H128.53L130.47 307.152V308.132C130.923 307.906 131.363 307.686 131.79 307.472C132.23 307.246 132.683 307.012 133.15 306.772C133.616 306.532 134.11 306.279 134.63 306.012C135.163 305.732 135.75 305.426 136.39 305.092H143.17L145.69 307.712L133.35 314.132ZM148.724 315.772C149.151 316.186 149.624 316.499 150.144 316.712C150.664 316.926 151.204 317.079 151.764 317.172C152.324 317.252 152.898 317.299 153.484 317.312C154.071 317.312 154.638 317.312 155.184 317.312C155.384 317.312 155.651 317.306 155.984 317.292C156.331 317.279 156.698 317.252 157.084 317.212C157.484 317.159 157.884 317.092 158.284 317.012C158.684 316.919 159.044 316.799 159.364 316.652C159.698 316.506 159.964 316.332 160.164 316.132C160.378 315.919 160.484 315.666 160.484 315.372C160.484 315.079 160.371 314.826 160.144 314.612C159.931 314.386 159.651 314.192 159.304 314.032C158.958 313.872 158.564 313.739 158.124 313.632C157.698 313.512 157.271 313.426 156.844 313.372C156.418 313.306 156.018 313.259 155.644 313.232C155.284 313.206 154.991 313.192 154.764 313.192H154.784C154.464 313.179 154.071 313.146 153.604 313.092C153.138 313.039 152.651 312.959 152.144 312.852C151.638 312.746 151.131 312.612 150.624 312.452C150.118 312.279 149.664 312.072 149.264 311.832C148.864 311.592 148.538 311.312 148.284 310.992C148.031 310.659 147.904 310.279 147.904 309.852C147.904 309.386 148.024 308.986 148.264 308.652C148.518 308.319 148.838 308.039 149.224 307.812C149.624 307.572 150.071 307.386 150.564 307.252C151.058 307.106 151.558 306.992 152.064 306.912C152.571 306.832 153.051 306.779 153.504 306.752C153.971 306.726 154.364 306.712 154.684 306.712C155.204 306.712 155.731 306.739 156.264 306.792C156.811 306.832 157.344 306.912 157.864 307.032C158.384 307.152 158.891 307.319 159.384 307.532C159.878 307.732 160.331 307.992 160.744 308.312L159.684 309.072C159.298 308.806 158.891 308.599 158.464 308.452C158.038 308.292 157.598 308.172 157.144 308.092C156.691 308.012 156.231 307.966 155.764 307.952C155.298 307.926 154.844 307.912 154.404 307.912C154.098 307.912 153.678 307.932 153.144 307.972C152.624 308.012 152.104 308.099 151.584 308.232C151.078 308.352 150.638 308.546 150.264 308.812C149.891 309.066 149.704 309.412 149.704 309.852C149.704 310.279 149.884 310.626 150.244 310.892C150.604 311.146 151.078 311.352 151.664 311.512C152.251 311.659 152.918 311.779 153.664 311.872C154.424 311.952 155.198 312.039 155.984 312.132C156.771 312.226 157.538 312.339 158.284 312.472C159.044 312.592 159.718 312.772 160.304 313.012C160.891 313.239 161.364 313.546 161.724 313.932C162.084 314.306 162.264 314.786 162.264 315.372C162.264 315.786 162.138 316.152 161.884 316.472C161.644 316.792 161.324 317.072 160.924 317.312C160.524 317.539 160.071 317.732 159.564 317.892C159.071 318.039 158.571 318.159 158.064 318.252C157.571 318.346 157.098 318.412 156.644 318.452C156.191 318.492 155.818 318.512 155.524 318.512H154.024C153.478 318.512 152.904 318.492 152.304 318.452C151.704 318.412 151.118 318.326 150.544 318.192C149.971 318.046 149.424 317.846 148.904 317.592C148.384 317.339 147.924 316.992 147.524 316.552L148.724 315.772ZM145.864 316.132C146.398 316.999 147.031 317.672 147.764 318.152C148.498 318.619 149.291 318.966 150.144 319.192C150.998 319.406 151.878 319.532 152.784 319.572C153.704 319.612 154.618 319.632 155.524 319.632C155.924 319.632 156.398 319.606 156.944 319.552C157.491 319.486 158.058 319.386 158.644 319.252C159.231 319.119 159.804 318.946 160.364 318.732C160.938 318.506 161.444 318.239 161.884 317.932C162.338 317.612 162.698 317.246 162.964 316.832C163.244 316.406 163.384 315.919 163.384 315.372C163.384 314.719 163.238 314.166 162.944 313.712C162.664 313.246 162.291 312.859 161.824 312.552C161.371 312.232 160.844 311.979 160.244 311.792C159.658 311.592 159.051 311.439 158.424 311.332C157.798 311.226 157.184 311.146 156.584 311.092C155.984 311.039 155.451 310.992 154.984 310.952C154.824 310.939 154.518 310.912 154.064 310.872C153.611 310.819 153.144 310.752 152.664 310.672C152.184 310.579 151.758 310.466 151.384 310.332C151.011 310.199 150.824 310.039 150.824 309.852C150.824 309.639 150.998 309.479 151.344 309.372C151.691 309.266 152.084 309.186 152.524 309.132C152.978 309.079 153.411 309.052 153.824 309.052C154.251 309.039 154.538 309.032 154.684 309.032C155.111 309.032 155.544 309.052 155.984 309.092C156.424 309.119 156.851 309.186 157.264 309.292C157.691 309.399 158.091 309.552 158.464 309.752C158.851 309.952 159.204 310.212 159.524 310.532L162.444 308.572C161.938 307.879 161.364 307.339 160.724 306.952C160.084 306.552 159.404 306.252 158.684 306.052C157.964 305.852 157.211 305.726 156.424 305.672C155.651 305.619 154.871 305.592 154.084 305.592C153.671 305.592 153.198 305.626 152.664 305.692C152.144 305.746 151.611 305.839 151.064 305.972C150.531 306.106 150.004 306.279 149.484 306.492C148.978 306.706 148.524 306.972 148.124 307.292C147.724 307.612 147.404 307.986 147.164 308.412C146.924 308.826 146.804 309.306 146.804 309.852C146.804 310.479 146.958 311.019 147.264 311.472C147.571 311.926 147.978 312.312 148.484 312.632C148.991 312.952 149.564 313.212 150.204 313.412C150.844 313.612 151.491 313.779 152.144 313.912C152.811 314.032 153.451 314.132 154.064 314.212C154.691 314.279 155.238 314.339 155.704 314.392C155.838 314.406 156.098 314.432 156.484 314.472C156.884 314.512 157.298 314.572 157.724 314.652C158.151 314.719 158.531 314.812 158.864 314.932C159.198 315.052 159.364 315.199 159.364 315.372C159.364 315.519 159.258 315.646 159.044 315.752C158.831 315.846 158.558 315.926 158.224 315.992C157.891 316.046 157.524 316.086 157.124 316.112C156.724 316.139 156.331 316.159 155.944 316.172C155.571 316.186 155.231 316.192 154.924 316.192C154.631 316.192 154.424 316.192 154.304 316.192C153.798 316.192 153.298 316.172 152.804 316.132C152.311 316.079 151.831 315.986 151.364 315.852C150.898 315.706 150.458 315.506 150.044 315.252C149.631 314.999 149.258 314.659 148.924 314.232L145.864 316.132ZM148.764 313.732L147.804 312.752C147.338 312.406 146.971 311.999 146.704 311.532C146.438 311.052 146.304 310.492 146.304 309.852C146.304 309.239 146.431 308.699 146.684 308.232C146.951 307.752 147.298 307.339 147.724 306.992C148.151 306.646 148.638 306.352 149.184 306.112C149.731 305.859 150.291 305.659 150.864 305.512C151.438 305.366 152.004 305.259 152.564 305.192C153.124 305.126 153.631 305.092 154.084 305.092C154.871 305.092 155.664 305.119 156.464 305.172C157.264 305.212 158.044 305.332 158.804 305.532C159.578 305.732 160.318 306.039 161.024 306.452C161.731 306.866 162.391 307.446 163.004 308.192C163.418 308.606 163.744 308.952 163.984 309.232C164.224 309.499 164.411 309.726 164.544 309.912C164.691 310.099 164.798 310.252 164.864 310.372C164.931 310.479 164.998 310.579 165.064 310.672L162.504 312.392C162.571 312.459 162.644 312.519 162.724 312.572C162.818 312.612 162.944 312.699 163.104 312.832C163.264 312.966 163.471 313.159 163.724 313.412C163.991 313.652 164.344 313.999 164.784 314.452C165.104 314.786 165.358 315.212 165.544 315.732C165.731 316.252 165.824 316.799 165.824 317.372C165.824 317.972 165.678 318.506 165.384 318.972C165.091 319.439 164.711 319.846 164.244 320.192C163.778 320.539 163.244 320.832 162.644 321.072C162.044 321.312 161.438 321.506 160.824 321.652C160.211 321.799 159.611 321.906 159.024 321.972C158.451 322.039 157.951 322.072 157.524 322.072C156.738 322.072 155.938 322.072 155.124 322.072C154.311 322.072 153.511 322.006 152.724 321.872C151.951 321.739 151.198 321.519 150.464 321.212C149.731 320.906 149.058 320.439 148.444 319.812C147.924 319.332 147.484 318.912 147.124 318.552C146.778 318.179 146.478 317.846 146.224 317.552C145.984 317.246 145.778 316.966 145.604 316.712C145.444 316.459 145.291 316.212 145.144 315.972L148.764 313.732Z" fill="white"/>
<path d="M257.838 306.712H259.058V311.792L268.998 306.712H271.038L259.358 312.612C261.291 313.612 263.211 314.599 265.118 315.572C267.038 316.532 268.964 317.512 270.898 318.512H268.998L259.058 313.452V318.512H257.838V306.712ZM260.178 315.272L268.678 319.632L274.898 319.612C272.658 318.452 270.438 317.292 268.238 316.132C266.038 314.959 263.818 313.786 261.578 312.612L275.078 305.592H268.678C267.264 306.339 265.851 307.072 264.438 307.792C263.024 308.499 261.604 309.219 260.178 309.952V305.592H256.738V319.632H260.178V315.272ZM265.498 314.132L267.258 315.052C267.898 315.386 268.558 315.732 269.238 316.092C269.931 316.452 270.624 316.812 271.318 317.172C272.011 317.532 272.698 317.892 273.378 318.252C274.071 318.612 274.731 318.952 275.358 319.272L280.038 322.052L270.558 322.072L262.618 317.992V322.072H258.298L256.238 320.132V305.092H260.678L262.618 307.152V308.132C263.071 307.906 263.511 307.686 263.938 307.472C264.378 307.246 264.831 307.012 265.298 306.772C265.764 306.532 266.258 306.279 266.778 306.012C267.311 305.732 267.898 305.426 268.538 305.092H275.318L277.838 307.712L265.498 314.132ZM289.09 317.292C289.863 317.292 290.583 317.212 291.25 317.052C291.93 316.879 292.517 316.612 293.01 316.252C293.517 315.879 293.91 315.399 294.19 314.812C294.47 314.212 294.61 313.479 294.61 312.612C294.61 311.759 294.463 311.032 294.17 310.432C293.89 309.832 293.503 309.352 293.01 308.992C292.517 308.619 291.93 308.352 291.25 308.192C290.583 308.019 289.863 307.932 289.09 307.932H286.89C286.103 307.932 285.37 308.019 284.69 308.192C284.023 308.352 283.443 308.619 282.95 308.992C282.457 309.352 282.063 309.832 281.77 310.432C281.49 311.032 281.35 311.759 281.35 312.612C281.35 313.479 281.49 314.212 281.77 314.812C282.063 315.399 282.457 315.879 282.95 316.252C283.443 316.626 284.023 316.892 284.69 317.052C285.37 317.212 286.103 317.292 286.89 317.292H289.09ZM286.89 316.172C286.29 316.172 285.723 316.112 285.19 315.992C284.657 315.872 284.19 315.679 283.79 315.412C283.39 315.132 283.07 314.766 282.83 314.312C282.59 313.859 282.47 313.292 282.47 312.612C282.47 311.946 282.59 311.386 282.83 310.932C283.07 310.479 283.39 310.112 283.79 309.832C284.203 309.552 284.677 309.352 285.21 309.232C285.743 309.112 286.303 309.052 286.89 309.052H289.09C289.677 309.052 290.237 309.112 290.77 309.232C291.303 309.352 291.77 309.552 292.17 309.832C292.57 310.112 292.89 310.479 293.13 310.932C293.37 311.386 293.49 311.946 293.49 312.612C293.49 313.279 293.37 313.839 293.13 314.292C292.903 314.746 292.59 315.112 292.19 315.392C291.79 315.672 291.323 315.872 290.79 315.992C290.257 316.112 289.69 316.172 289.09 316.172H286.89ZM280.09 312.612C280.09 311.532 280.257 310.619 280.59 309.872C280.937 309.126 281.41 308.519 282.01 308.052C282.623 307.572 283.343 307.232 284.17 307.032C285.01 306.819 285.917 306.712 286.89 306.712H289.09C290.063 306.712 290.963 306.819 291.79 307.032C292.617 307.246 293.33 307.586 293.93 308.052C294.543 308.519 295.017 309.126 295.35 309.872C295.697 310.619 295.87 311.532 295.87 312.612C295.87 313.692 295.697 314.606 295.35 315.352C295.017 316.099 294.543 316.706 293.93 317.172C293.33 317.639 292.617 317.979 291.79 318.192C290.963 318.406 290.063 318.512 289.09 318.512H286.89C285.917 318.512 285.01 318.412 284.17 318.212C283.343 317.999 282.623 317.659 282.01 317.192C281.41 316.712 280.937 316.099 280.59 315.352C280.257 314.606 280.09 313.692 280.09 312.612ZM278.97 312.612C278.97 313.879 279.163 314.959 279.55 315.852C279.95 316.732 280.497 317.452 281.19 318.012C281.897 318.572 282.73 318.986 283.69 319.252C284.663 319.506 285.73 319.632 286.89 319.632H289.09C290.25 319.632 291.31 319.506 292.27 319.252C293.23 318.986 294.057 318.572 294.75 318.012C295.457 317.452 296.003 316.732 296.39 315.852C296.777 314.959 296.97 313.879 296.97 312.612C296.97 311.346 296.777 310.272 296.39 309.392C296.003 308.499 295.457 307.772 294.75 307.212C294.057 306.652 293.23 306.246 292.27 305.992C291.31 305.726 290.25 305.592 289.09 305.592H286.89C285.73 305.592 284.663 305.726 283.69 305.992C282.73 306.246 281.897 306.652 281.19 307.212C280.497 307.772 279.95 308.499 279.55 309.392C279.163 310.272 278.97 311.346 278.97 312.612ZM278.47 312.612C278.47 311.252 278.677 310.099 279.09 309.152C279.503 308.192 280.083 307.412 280.83 306.812C281.577 306.212 282.463 305.779 283.49 305.512C284.53 305.232 285.663 305.092 286.89 305.092H289.09C289.863 305.092 290.59 305.139 291.27 305.232C291.963 305.312 292.643 305.492 293.31 305.772C293.977 306.039 294.637 306.426 295.29 306.932C295.957 307.426 296.643 308.092 297.35 308.932C297.95 309.532 298.443 310.326 298.83 311.312C299.217 312.299 299.41 313.399 299.41 314.612C299.41 315.959 299.203 317.106 298.79 318.052C298.39 318.999 297.817 319.766 297.07 320.352C296.337 320.952 295.457 321.386 294.43 321.652C293.417 321.932 292.303 322.072 291.09 322.072H288.89C287.53 322.072 286.263 321.919 285.09 321.612C283.917 321.306 282.95 320.779 282.19 320.032C281.43 319.366 280.81 318.739 280.33 318.152C279.85 317.552 279.47 316.959 279.19 316.372C278.923 315.786 278.737 315.186 278.63 314.572C278.523 313.959 278.47 313.306 278.47 312.612ZM289.09 315.672C289.61 315.672 290.103 315.626 290.57 315.532C291.05 315.426 291.47 315.252 291.83 315.012C292.19 314.772 292.47 314.459 292.67 314.072C292.883 313.672 292.99 313.186 292.99 312.612C292.99 312.292 292.95 311.999 292.87 311.732C292.323 311.572 291.73 311.492 291.09 311.492H288.89C288.357 311.492 287.85 311.546 287.37 311.652C286.89 311.759 286.463 311.932 286.09 312.172C285.73 312.412 285.443 312.732 285.23 313.132C285.017 313.532 284.91 314.026 284.91 314.612C284.91 314.932 284.937 315.199 284.99 315.412C285.27 315.506 285.57 315.572 285.89 315.612C286.21 315.652 286.543 315.672 286.89 315.672H289.09ZM304.349 315.772C304.776 316.186 305.249 316.499 305.769 316.712C306.289 316.926 306.829 317.079 307.389 317.172C307.949 317.252 308.522 317.299 309.109 317.312C309.696 317.312 310.262 317.312 310.809 317.312C311.009 317.312 311.276 317.306 311.609 317.292C311.956 317.279 312.322 317.252 312.709 317.212C313.109 317.159 313.509 317.092 313.909 317.012C314.309 316.919 314.669 316.799 314.989 316.652C315.322 316.506 315.589 316.332 315.789 316.132C316.002 315.919 316.109 315.666 316.109 315.372C316.109 315.079 315.996 314.826 315.769 314.612C315.556 314.386 315.276 314.192 314.929 314.032C314.582 313.872 314.189 313.739 313.749 313.632C313.322 313.512 312.896 313.426 312.469 313.372C312.042 313.306 311.642 313.259 311.269 313.232C310.909 313.206 310.616 313.192 310.389 313.192H310.409C310.089 313.179 309.696 313.146 309.229 313.092C308.762 313.039 308.276 312.959 307.769 312.852C307.262 312.746 306.756 312.612 306.249 312.452C305.742 312.279 305.289 312.072 304.889 311.832C304.489 311.592 304.162 311.312 303.909 310.992C303.656 310.659 303.529 310.279 303.529 309.852C303.529 309.386 303.649 308.986 303.889 308.652C304.142 308.319 304.462 308.039 304.849 307.812C305.249 307.572 305.696 307.386 306.189 307.252C306.682 307.106 307.182 306.992 307.689 306.912C308.196 306.832 308.676 306.779 309.129 306.752C309.596 306.726 309.989 306.712 310.309 306.712C310.829 306.712 311.356 306.739 311.889 306.792C312.436 306.832 312.969 306.912 313.489 307.032C314.009 307.152 314.516 307.319 315.009 307.532C315.502 307.732 315.956 307.992 316.369 308.312L315.309 309.072C314.922 308.806 314.516 308.599 314.089 308.452C313.662 308.292 313.222 308.172 312.769 308.092C312.316 308.012 311.856 307.966 311.389 307.952C310.922 307.926 310.469 307.912 310.029 307.912C309.722 307.912 309.302 307.932 308.769 307.972C308.249 308.012 307.729 308.099 307.209 308.232C306.702 308.352 306.262 308.546 305.889 308.812C305.516 309.066 305.329 309.412 305.329 309.852C305.329 310.279 305.509 310.626 305.869 310.892C306.229 311.146 306.702 311.352 307.289 311.512C307.876 311.659 308.542 311.779 309.289 311.872C310.049 311.952 310.822 312.039 311.609 312.132C312.396 312.226 313.162 312.339 313.909 312.472C314.669 312.592 315.342 312.772 315.929 313.012C316.516 313.239 316.989 313.546 317.349 313.932C317.709 314.306 317.889 314.786 317.889 315.372C317.889 315.786 317.762 316.152 317.509 316.472C317.269 316.792 316.949 317.072 316.549 317.312C316.149 317.539 315.696 317.732 315.189 317.892C314.696 318.039 314.196 318.159 313.689 318.252C313.196 318.346 312.722 318.412 312.269 318.452C311.816 318.492 311.442 318.512 311.149 318.512H309.649C309.102 318.512 308.529 318.492 307.929 318.452C307.329 318.412 306.742 318.326 306.169 318.192C305.596 318.046 305.049 317.846 304.529 317.592C304.009 317.339 303.549 316.992 303.149 316.552L304.349 315.772ZM301.489 316.132C302.022 316.999 302.656 317.672 303.389 318.152C304.122 318.619 304.916 318.966 305.769 319.192C306.622 319.406 307.502 319.532 308.409 319.572C309.329 319.612 310.242 319.632 311.149 319.632C311.549 319.632 312.022 319.606 312.569 319.552C313.116 319.486 313.682 319.386 314.269 319.252C314.856 319.119 315.429 318.946 315.989 318.732C316.562 318.506 317.069 318.239 317.509 317.932C317.962 317.612 318.322 317.246 318.589 316.832C318.869 316.406 319.009 315.919 319.009 315.372C319.009 314.719 318.862 314.166 318.569 313.712C318.289 313.246 317.916 312.859 317.449 312.552C316.996 312.232 316.469 311.979 315.869 311.792C315.282 311.592 314.676 311.439 314.049 311.332C313.422 311.226 312.809 311.146 312.209 311.092C311.609 311.039 311.076 310.992 310.609 310.952C310.449 310.939 310.142 310.912 309.689 310.872C309.236 310.819 308.769 310.752 308.289 310.672C307.809 310.579 307.382 310.466 307.009 310.332C306.636 310.199 306.449 310.039 306.449 309.852C306.449 309.639 306.622 309.479 306.969 309.372C307.316 309.266 307.709 309.186 308.149 309.132C308.602 309.079 309.036 309.052 309.449 309.052C309.876 309.039 310.162 309.032 310.309 309.032C310.736 309.032 311.169 309.052 311.609 309.092C312.049 309.119 312.476 309.186 312.889 309.292C313.316 309.399 313.716 309.552 314.089 309.752C314.476 309.952 314.829 310.212 315.149 310.532L318.069 308.572C317.562 307.879 316.989 307.339 316.349 306.952C315.709 306.552 315.029 306.252 314.309 306.052C313.589 305.852 312.836 305.726 312.049 305.672C311.276 305.619 310.496 305.592 309.709 305.592C309.296 305.592 308.822 305.626 308.289 305.692C307.769 305.746 307.236 305.839 306.689 305.972C306.156 306.106 305.629 306.279 305.109 306.492C304.602 306.706 304.149 306.972 303.749 307.292C303.349 307.612 303.029 307.986 302.789 308.412C302.549 308.826 302.429 309.306 302.429 309.852C302.429 310.479 302.582 311.019 302.889 311.472C303.196 311.926 303.602 312.312 304.109 312.632C304.616 312.952 305.189 313.212 305.829 313.412C306.469 313.612 307.116 313.779 307.769 313.912C308.436 314.032 309.076 314.132 309.689 314.212C310.316 314.279 310.862 314.339 311.329 314.392C311.462 314.406 311.722 314.432 312.109 314.472C312.509 314.512 312.922 314.572 313.349 314.652C313.776 314.719 314.156 314.812 314.489 314.932C314.822 315.052 314.989 315.199 314.989 315.372C314.989 315.519 314.882 315.646 314.669 315.752C314.456 315.846 314.182 315.926 313.849 315.992C313.516 316.046 313.149 316.086 312.749 316.112C312.349 316.139 311.956 316.159 311.569 316.172C311.196 316.186 310.856 316.192 310.549 316.192C310.256 316.192 310.049 316.192 309.929 316.192C309.422 316.192 308.922 316.172 308.429 316.132C307.936 316.079 307.456 315.986 306.989 315.852C306.522 315.706 306.082 315.506 305.669 315.252C305.256 314.999 304.882 314.659 304.549 314.232L301.489 316.132ZM304.389 313.732L303.429 312.752C302.962 312.406 302.596 311.999 302.329 311.532C302.062 311.052 301.929 310.492 301.929 309.852C301.929 309.239 302.056 308.699 302.309 308.232C302.576 307.752 302.922 307.339 303.349 306.992C303.776 306.646 304.262 306.352 304.809 306.112C305.356 305.859 305.916 305.659 306.489 305.512C307.062 305.366 307.629 305.259 308.189 305.192C308.749 305.126 309.256 305.092 309.709 305.092C310.496 305.092 311.289 305.119 312.089 305.172C312.889 305.212 313.669 305.332 314.429 305.532C315.202 305.732 315.942 306.039 316.649 306.452C317.356 306.866 318.016 307.446 318.629 308.192C319.042 308.606 319.369 308.952 319.609 309.232C319.849 309.499 320.036 309.726 320.169 309.912C320.316 310.099 320.422 310.252 320.489 310.372C320.556 310.479 320.622 310.579 320.689 310.672L318.129 312.392C318.196 312.459 318.269 312.519 318.349 312.572C318.442 312.612 318.569 312.699 318.729 312.832C318.889 312.966 319.096 313.159 319.349 313.412C319.616 313.652 319.969 313.999 320.409 314.452C320.729 314.786 320.982 315.212 321.169 315.732C321.356 316.252 321.449 316.799 321.449 317.372C321.449 317.972 321.302 318.506 321.009 318.972C320.716 319.439 320.336 319.846 319.869 320.192C319.402 320.539 318.869 320.832 318.269 321.072C317.669 321.312 317.062 321.506 316.449 321.652C315.836 321.799 315.236 321.906 314.649 321.972C314.076 322.039 313.576 322.072 313.149 322.072C312.362 322.072 311.562 322.072 310.749 322.072C309.936 322.072 309.136 322.006 308.349 321.872C307.576 321.739 306.822 321.519 306.089 321.212C305.356 320.906 304.682 320.439 304.069 319.812C303.549 319.332 303.109 318.912 302.749 318.552C302.402 318.179 302.102 317.846 301.849 317.552C301.609 317.246 301.402 316.966 301.229 316.712C301.069 316.459 300.916 316.212 300.769 315.972L304.389 313.732ZM330.203 307.932H323.503V306.712H338.123V307.932H331.403V318.512H330.203V307.932ZM332.503 309.052H339.223V305.592H322.403V309.052H329.103V319.632H332.503V309.052ZM321.903 309.552V305.092H339.723L341.663 307.152V311.492H334.943V322.072H330.663L328.603 320.132V311.492H323.963L321.903 309.552Z" fill="white"/>
<g filter="url(#filter5_d_48_235)">
<path d="M75.5801 287.23H146.347L215.487 278.124L284.627 287.23H355.394" stroke="white"/>
</g>
<g filter="url(#filter6_d_48_235)">
<path d="M75.5801 326.962L144.72 325.306L215.487 328.617L287.067 325.306L355.394 326.962" stroke="white"/>
</g>
<path d="M188.645 308.054L190.973 313.662L190.985 313.693H191.019H198.512L192.461 317.135L192.423 317.156L192.44 317.197L194.758 322.782L188.669 319.319L188.645 319.305L188.62 319.319L182.531 322.782L184.849 317.197L184.866 317.156L184.828 317.135L178.777 313.693H186.271H186.304L186.317 313.662L188.645 308.054Z" fill="white" stroke="#F2FF41" stroke-width="0.1"/>
<path d="M240.703 308.054L243.031 313.662L243.044 313.693H243.077H250.571L244.52 317.135L244.482 317.156L244.498 317.197L246.817 322.782L240.728 319.319L240.703 319.305L240.679 319.319L234.59 322.782L236.908 317.197L236.925 317.156L236.887 317.135L230.836 313.693H238.329H238.363L238.375 313.662L240.703 308.054Z" fill="white" stroke="#F2FF41" stroke-width="0.1"/>
<path d="M267.451 257.698C267.451 257.698 267.013 251.563 260.591 251.213C258.402 251.213 254.485 252.483 254.364 258.095H267.451V257.698Z" fill="#F4C323"/>
<path d="M266.257 258.535C266.254 258.523 266 257.36 265.317 256.121C264.424 254.506 263.253 253.525 261.84 253.21C261.237 253.094 259.868 253.071 258.533 253.705C256.933 254.466 255.933 255.892 255.561 257.944L254.791 257.774C255.019 256.515 255.467 255.444 256.126 254.59C256.684 253.867 257.388 253.3 258.221 252.906C259.729 252.188 261.292 252.22 261.978 252.353L261.989 252.356C262.897 252.559 263.73 253.001 264.463 253.679C265.042 254.211 265.56 254.888 266 255.69C266.744 257.044 267.011 258.28 267.024 258.332L266.257 258.535Z" fill="#704A21"/>
<path d="M265.482 258.694C265.479 258.685 265.1 257.698 264.335 256.738C263.345 255.493 262.204 254.865 260.937 254.865H260.913C257.721 254.885 256.271 257.921 256.208 258.263L255.438 258.092C255.511 257.684 256.017 256.668 256.868 255.788C257.653 254.978 258.991 254.009 260.91 253.994H260.939C262.429 253.994 263.814 254.749 264.945 256.182C265.788 257.25 266.194 258.312 266.212 258.358L265.482 258.694Z" fill="#704A21"/>
<path d="M264.497 258.708C264.479 258.685 262.693 256.306 260.727 256.483H260.721C258.823 256.63 257.616 257.921 257.454 258.41L256.715 258.112C256.88 257.614 257.367 257.041 258.022 256.575C258.567 256.188 259.467 255.707 260.664 255.615C263.041 255.403 265.021 258.046 265.105 258.158L264.497 258.708Z" fill="#704A21"/>
<path d="M241.995 257.933C241.995 257.933 242.652 248.695 252.322 248.169C255.616 248.169 261.515 250.081 261.693 258.526H241.995V257.933Z" fill="#F4C323"/>
<path d="M243.597 258.679L242.835 258.468C242.851 258.396 243.249 256.677 244.354 254.781C245.006 253.664 245.771 252.718 246.627 251.971C247.703 251.031 248.923 250.403 250.256 250.107L250.266 250.105C250.918 249.98 251.78 249.957 252.628 250.047C253.762 250.162 254.833 250.458 255.809 250.924C257.035 251.505 258.072 252.339 258.891 253.401C259.863 254.66 260.522 256.237 260.857 258.095L260.088 258.266C259.517 255.097 257.975 252.894 255.5 251.719C253.445 250.744 251.332 250.782 250.405 250.958C248.214 251.447 246.402 252.886 245.027 255.23C243.988 257.007 243.6 258.665 243.597 258.679Z" fill="#704A21"/>
<path d="M244.77 258.83L244.056 258.468C244.082 258.407 244.681 256.966 245.936 255.516C246.677 254.66 247.491 253.977 248.358 253.488C249.434 252.88 250.594 252.573 251.801 252.573H251.848C254.673 252.591 256.642 254.02 257.797 255.215C259.046 256.506 259.784 257.976 259.889 258.564L259.119 258.734C259.072 258.474 258.512 257.143 257.26 255.849C256.207 254.761 254.414 253.459 251.843 253.441H251.801C249.826 253.441 248.049 254.333 246.522 256.095C245.352 257.441 244.776 258.815 244.77 258.83Z" fill="#704A21"/>
<path d="M257.226 258.928C257.087 258.506 256.545 257.794 255.653 257.157C254.93 256.642 253.731 256.005 252.136 255.881H252.131C249.054 255.606 246.549 258.821 246.522 258.856L245.923 258.295C245.952 258.257 246.625 257.386 247.727 256.544C249.204 255.415 250.746 254.888 252.191 255.016C253.951 255.152 255.276 255.858 256.074 256.428C257.009 257.094 257.734 257.939 257.962 258.633L257.226 258.928Z" fill="#704A21"/>
<path d="M241.27 258.526C241.145 259.208 241.082 259.902 241.082 260.598C241.082 266.369 245.352 271.089 250.573 271.089H258.693C263.913 271.089 268.184 266.369 268.184 260.598C268.184 259.889 268.119 259.195 267.995 258.526H241.27Z" fill="white"/>
<path d="M258.692 271.523H250.573C249.245 271.523 247.952 271.233 246.734 270.66C245.559 270.108 244.501 269.318 243.592 268.313C242.684 267.309 241.969 266.14 241.469 264.841C240.95 263.495 240.688 262.065 240.688 260.598C240.688 259.875 240.754 259.148 240.885 258.439L240.948 258.092H268.315L268.377 258.439C268.508 259.148 268.574 259.875 268.574 260.598C268.574 262.065 268.312 263.495 267.794 264.841C267.293 266.14 266.579 267.309 265.67 268.313C264.762 269.318 263.704 270.108 262.528 270.66C261.313 271.233 260.02 271.523 258.692 271.523ZM241.597 258.96C241.516 259.501 241.474 260.051 241.474 260.598C241.474 266.143 245.556 270.655 250.573 270.655H258.692C263.709 270.655 267.791 266.143 267.791 260.598C267.791 260.051 267.749 259.501 267.668 258.96H241.597Z" fill="#704A21"/>
<path d="M241.181 261.984H267.778V262.852H241.181V261.984Z" fill="#704A21"/>
<path d="M276.785 237.102L258.009 239.244C257.993 239.246 257.98 239.261 257.98 239.281L258.079 240.346C258.082 240.364 258.095 240.378 258.114 240.378L276.89 238.236C276.905 238.234 276.918 238.219 276.918 238.199L276.819 237.134C276.816 237.114 276.803 237.102 276.785 237.102ZM276.785 240.401L258.009 242.543C257.993 242.546 257.98 242.56 257.98 242.58L258.079 243.645C258.082 243.663 258.095 243.677 258.114 243.677L276.89 241.536C276.905 241.533 276.918 241.518 276.918 241.498L276.819 240.433C276.816 240.413 276.803 240.401 276.785 240.401Z" fill="#6C4820"/>
<path d="M264.994 237.791C264.994 237.791 264.966 237.852 264.916 237.967C264.866 238.083 264.798 238.254 264.714 238.471C264.633 238.688 264.539 238.954 264.442 239.264C264.345 239.573 264.248 239.924 264.159 240.309C264.149 240.358 264.138 240.404 264.128 240.456C264.117 240.505 264.107 240.555 264.096 240.607C264.075 240.708 264.057 240.809 264.036 240.913C264.018 241.018 264 241.125 263.981 241.232C263.965 241.342 263.95 241.449 263.934 241.562C263.876 242.007 263.842 242.479 263.84 242.965V243.148C263.842 243.208 263.845 243.269 263.845 243.333C263.845 243.365 263.848 243.394 263.848 243.425C263.848 243.457 263.85 243.486 263.85 243.518C263.853 243.579 263.858 243.642 263.861 243.703C263.866 243.828 263.882 243.952 263.895 244.076L263.903 244.169L263.916 244.262C263.924 244.325 263.931 244.386 263.939 244.45C263.947 244.513 263.958 244.574 263.968 244.638C263.979 244.702 263.989 244.762 264 244.826C264.01 244.89 264.026 244.95 264.039 245.011C264.052 245.072 264.065 245.136 264.078 245.196L264.083 245.22L264.086 245.231L264.081 245.214L264.083 245.22L264.096 245.269L264.125 245.364L264.18 245.561C264.217 245.694 264.251 245.824 264.285 245.958C264.353 246.221 264.418 246.487 264.476 246.753C264.536 247.02 264.591 247.286 264.641 247.549C264.667 247.682 264.691 247.813 264.714 247.946C264.735 248.079 264.759 248.209 264.777 248.339C264.819 248.6 264.856 248.86 264.885 249.118C264.947 249.63 264.984 250.128 265.002 250.602C265.005 250.721 265.01 250.837 265.01 250.953C265.01 251.068 265.015 251.181 265.01 251.294C265.008 251.407 265.008 251.517 265.002 251.624C264.997 251.731 264.997 251.838 264.989 251.942C264.976 252.151 264.96 252.347 264.939 252.536C264.926 252.628 264.916 252.721 264.905 252.81C264.892 252.9 264.879 252.984 264.866 253.068C264.809 253.398 264.746 253.684 264.675 253.913C264.659 253.971 264.644 254.026 264.628 254.075C264.61 254.124 264.594 254.173 264.581 254.217C264.565 254.26 264.552 254.301 264.539 254.338C264.526 254.376 264.51 254.408 264.5 254.437C264.452 254.553 264.426 254.616 264.426 254.616C264.426 254.616 264.437 254.55 264.455 254.422C264.468 254.346 264.478 254.268 264.487 254.191C264.492 254.145 264.5 254.095 264.505 254.043C264.51 253.991 264.515 253.936 264.521 253.878C264.544 253.644 264.557 253.36 264.562 253.036C264.568 252.712 264.56 252.345 264.534 251.945C264.528 251.847 264.521 251.743 264.513 251.641C264.505 251.537 264.494 251.433 264.484 251.326C264.473 251.219 264.463 251.109 264.45 250.999C264.439 250.889 264.424 250.776 264.411 250.663C264.353 250.209 264.282 249.734 264.196 249.245C264.151 248.999 264.107 248.75 264.054 248.501C264.031 248.377 264.002 248.25 263.976 248.122C263.95 247.995 263.921 247.868 263.895 247.74C263.84 247.486 263.78 247.228 263.719 246.97C263.656 246.713 263.594 246.455 263.528 246.201C263.494 246.073 263.463 245.943 263.429 245.816L263.376 245.625L263.35 245.529L263.337 245.48L263.334 245.474C263.321 245.425 263.329 245.457 263.327 245.445L263.324 245.434L263.319 245.408C263.293 245.269 263.261 245.13 263.24 244.991L263.209 244.783C263.198 244.713 263.188 244.644 263.183 244.574C263.175 244.505 263.167 244.435 263.162 244.366L263.151 244.262L263.146 244.158C263.138 244.019 263.128 243.883 263.128 243.744C263.128 243.674 263.125 243.608 263.125 243.538V243.437C263.125 243.402 263.125 243.37 263.128 243.336C263.13 243.269 263.13 243.203 263.133 243.133C263.135 243.066 263.141 243 263.146 242.933C263.177 242.404 263.253 241.9 263.358 241.434C263.46 240.965 263.594 240.537 263.732 240.149C263.874 239.764 264.023 239.42 264.17 239.125C264.316 238.83 264.458 238.584 264.581 238.384C264.704 238.184 264.809 238.037 264.882 237.935C264.953 237.843 264.994 237.791 264.994 237.791ZM262.489 237.791C262.489 237.791 262.46 237.852 262.41 237.967C262.36 238.083 262.292 238.254 262.209 238.471C262.127 238.688 262.033 238.954 261.936 239.264C261.839 239.573 261.742 239.924 261.653 240.309C261.643 240.358 261.633 240.404 261.622 240.456C261.612 240.505 261.601 240.555 261.591 240.607C261.57 240.708 261.551 240.809 261.53 240.913C261.512 241.018 261.494 241.125 261.475 241.232C261.46 241.342 261.444 241.449 261.428 241.562C261.371 242.007 261.337 242.479 261.334 242.965V243.148C261.337 243.208 261.339 243.269 261.339 243.333C261.339 243.365 261.342 243.394 261.342 243.425C261.342 243.457 261.345 243.486 261.345 243.518C261.347 243.579 261.352 243.642 261.355 243.703C261.36 243.828 261.376 243.952 261.389 244.076L261.397 244.169L261.41 244.262C261.418 244.325 261.426 244.386 261.434 244.45C261.441 244.513 261.452 244.574 261.462 244.638C261.473 244.702 261.483 244.762 261.494 244.826C261.504 244.89 261.52 244.95 261.533 245.011C261.546 245.072 261.559 245.136 261.572 245.196L261.578 245.22L261.58 245.231L261.575 245.214L261.578 245.22L261.591 245.269L261.619 245.364L261.674 245.561C261.711 245.694 261.745 245.824 261.779 245.958C261.847 246.221 261.913 246.487 261.97 246.753C262.031 247.02 262.085 247.286 262.135 247.549C262.161 247.682 262.185 247.813 262.209 247.946C262.23 248.079 262.253 248.209 262.271 248.339C262.313 248.6 262.35 248.86 262.379 249.118C262.442 249.63 262.478 250.128 262.497 250.602C262.499 250.721 262.504 250.837 262.504 250.953C262.504 251.068 262.51 251.181 262.504 251.294C262.502 251.407 262.502 251.517 262.497 251.624C262.491 251.731 262.491 251.838 262.483 251.942C262.47 252.151 262.455 252.347 262.434 252.536C262.421 252.628 262.41 252.721 262.4 252.81C262.387 252.9 262.374 252.984 262.36 253.068C262.303 253.398 262.24 253.684 262.169 253.913C262.154 253.971 262.138 254.026 262.122 254.075C262.104 254.124 262.088 254.173 262.075 254.217C262.059 254.26 262.046 254.301 262.033 254.338C262.02 254.376 262.004 254.408 261.994 254.437C261.947 254.553 261.921 254.616 261.921 254.616C261.921 254.616 261.931 254.55 261.949 254.422C261.962 254.346 261.972 254.268 261.981 254.191C261.986 254.145 261.994 254.095 261.999 254.043C262.004 253.991 262.01 253.936 262.015 253.878C262.038 253.644 262.051 253.36 262.057 253.036C262.062 252.712 262.054 252.345 262.028 251.945C262.023 251.847 262.015 251.743 262.007 251.641C261.999 251.537 261.989 251.433 261.978 251.326C261.968 251.219 261.957 251.109 261.944 250.999C261.934 250.889 261.918 250.776 261.905 250.663C261.847 250.209 261.777 249.734 261.69 249.245C261.646 248.999 261.601 248.75 261.549 248.501C261.525 248.377 261.496 248.25 261.47 248.122C261.444 247.995 261.415 247.868 261.389 247.74C261.334 247.486 261.274 247.228 261.214 246.97C261.151 246.713 261.088 246.455 261.022 246.201C260.988 246.073 260.957 245.943 260.923 245.816L260.871 245.625L260.844 245.529L260.831 245.48L260.829 245.474C260.816 245.425 260.823 245.457 260.821 245.445L260.818 245.434L260.813 245.408C260.787 245.269 260.755 245.13 260.734 244.991L260.703 244.783C260.693 244.713 260.682 244.644 260.677 244.574C260.669 244.505 260.661 244.435 260.656 244.366L260.645 244.262L260.64 244.158C260.632 244.019 260.622 243.883 260.622 243.744C260.622 243.674 260.619 243.608 260.619 243.538V243.437C260.619 243.402 260.619 243.37 260.622 243.336C260.624 243.269 260.624 243.203 260.627 243.133C260.63 243.066 260.635 243 260.64 242.933C260.672 242.404 260.748 241.9 260.852 241.434C260.954 240.965 261.088 240.537 261.227 240.149C261.368 239.764 261.517 239.42 261.664 239.125C261.811 238.83 261.952 238.584 262.075 238.384C262.198 238.184 262.303 238.037 262.376 237.935C262.444 237.843 262.489 237.791 262.489 237.791ZM260.399 238.199C260.399 238.199 260.37 238.26 260.321 238.375C260.271 238.491 260.203 238.662 260.119 238.879C260.038 239.096 259.944 239.362 259.847 239.672C259.75 239.982 259.653 240.332 259.564 240.717C259.554 240.766 259.543 240.812 259.533 240.864C259.522 240.913 259.512 240.963 259.501 241.015C259.48 241.116 259.462 241.217 259.441 241.321C259.423 241.426 259.404 241.533 259.386 241.64C259.37 241.75 259.355 241.857 259.339 241.97C259.281 242.415 259.247 242.887 259.245 243.373V243.556C259.247 243.616 259.25 243.677 259.25 243.741C259.25 243.773 259.252 243.802 259.252 243.833C259.252 243.865 259.255 243.894 259.255 243.926C259.258 243.987 259.263 244.05 259.266 244.111C259.271 244.236 259.286 244.36 259.3 244.485L259.307 244.577L259.321 244.67C259.328 244.733 259.336 244.794 259.344 244.858C259.352 244.922 259.362 244.982 259.373 245.046C259.383 245.11 259.394 245.17 259.404 245.234C259.415 245.298 259.43 245.358 259.444 245.419C259.457 245.48 259.47 245.544 259.483 245.604L259.488 245.628L259.491 245.639L259.485 245.622L259.488 245.628L259.501 245.677L259.53 245.772L259.585 245.969C259.622 246.102 259.656 246.232 259.69 246.366C259.758 246.629 259.823 246.895 259.881 247.161C259.941 247.428 259.996 247.694 260.046 247.957C260.072 248.09 260.096 248.221 260.119 248.354C260.14 248.487 260.164 248.617 260.182 248.747C260.224 249.008 260.261 249.268 260.289 249.526C260.352 250.038 260.389 250.536 260.407 251.01C260.41 251.129 260.415 251.245 260.415 251.361C260.415 251.476 260.42 251.589 260.415 251.702C260.412 251.815 260.412 251.925 260.407 252.032C260.402 252.139 260.402 252.246 260.394 252.35C260.381 252.559 260.365 252.755 260.344 252.944C260.331 253.036 260.321 253.129 260.31 253.218C260.297 253.308 260.284 253.392 260.271 253.476C260.213 253.806 260.151 254.092 260.08 254.321C260.064 254.379 260.048 254.434 260.033 254.483C260.014 254.532 259.999 254.582 259.986 254.625C259.97 254.668 259.957 254.709 259.944 254.746C259.931 254.784 259.915 254.816 259.904 254.845C259.857 254.961 259.831 255.024 259.831 255.024C259.831 255.024 259.842 254.958 259.86 254.83C259.872 254.754 259.883 254.676 259.891 254.599C259.897 254.553 259.904 254.503 259.91 254.451C259.915 254.399 259.92 254.344 259.925 254.286C259.949 254.052 259.962 253.768 259.967 253.444C259.972 253.12 259.965 252.753 259.938 252.353C259.933 252.255 259.925 252.151 259.918 252.049C259.91 251.945 259.899 251.841 259.889 251.734C259.878 251.627 259.868 251.517 259.855 251.407C259.844 251.297 259.828 251.184 259.815 251.071C259.758 250.617 259.687 250.142 259.601 249.653C259.556 249.407 259.512 249.158 259.459 248.909C259.436 248.785 259.407 248.658 259.381 248.53C259.355 248.403 259.326 248.276 259.3 248.148C259.245 247.894 259.184 247.636 259.124 247.378C259.061 247.121 258.998 246.863 258.933 246.609C258.899 246.481 258.868 246.351 258.834 246.224L258.781 246.033L258.755 245.937L258.742 245.888L258.739 245.882C258.726 245.833 258.734 245.865 258.731 245.853L258.729 245.842L258.724 245.816C258.697 245.677 258.666 245.538 258.645 245.399L258.614 245.191C258.603 245.121 258.593 245.052 258.587 244.982C258.58 244.913 258.572 244.843 258.566 244.774L258.556 244.67L258.551 244.566C258.543 244.427 258.532 244.291 258.532 244.152C258.532 244.082 258.53 244.016 258.53 243.946V243.845C258.53 243.81 258.53 243.778 258.532 243.744C258.535 243.677 258.535 243.611 258.538 243.541C258.54 243.475 258.545 243.408 258.551 243.341C258.582 242.812 258.658 242.308 258.763 241.842C258.865 241.374 258.998 240.945 259.137 240.557C259.279 240.173 259.428 239.828 259.575 239.533C259.721 239.238 259.863 238.992 259.986 238.792C260.109 238.592 260.213 238.445 260.287 238.344C260.357 238.248 260.399 238.199 260.399 238.199Z" fill="#EABD2C"/>
<path d="M248.329 239.316C248.4 239.316 248.473 239.33 248.541 239.348C248.575 239.359 248.612 239.368 248.646 239.382C248.68 239.397 248.714 239.409 248.748 239.426C248.782 239.44 248.816 239.458 248.848 239.478C248.882 239.495 248.913 239.516 248.944 239.539C248.976 239.559 249.007 239.582 249.039 239.605C249.067 239.631 249.099 239.655 249.128 239.681C249.185 239.733 249.243 239.791 249.295 239.851C249.321 239.883 249.348 239.912 249.371 239.947C249.395 239.979 249.421 240.013 249.442 240.048L249.507 240.152C249.528 240.187 249.547 240.225 249.568 240.262C249.589 240.3 249.604 240.337 249.623 240.375L249.649 240.433L249.672 240.491C249.688 240.531 249.704 240.569 249.717 240.61L249.753 240.731C249.767 240.772 249.774 240.812 249.785 240.853C249.795 240.893 249.806 240.934 249.811 240.974L249.835 241.099C249.843 241.139 249.845 241.183 249.85 241.223C249.863 241.307 249.866 241.388 249.871 241.472C249.874 241.512 249.874 241.556 249.874 241.596V241.721C249.871 241.802 249.869 241.883 249.863 241.967C249.856 242.048 249.848 242.129 249.84 242.207C249.827 242.285 249.816 242.366 249.803 242.444L249.798 242.473L249.793 242.493L249.688 242.838L249.638 243.006L249.589 243.174L249.544 243.341C249.531 243.396 249.515 243.451 249.502 243.509C249.476 243.619 249.452 243.732 249.431 243.845C249.421 243.9 249.41 243.958 249.403 244.013C249.395 244.068 249.387 244.126 249.382 244.184L249.374 244.27C249.371 244.299 249.369 244.328 249.369 244.357C249.366 244.386 249.366 244.415 249.366 244.444C249.363 244.473 249.363 244.502 249.363 244.531V244.574L249.366 244.618V244.661L249.369 244.704C249.371 244.733 249.371 244.765 249.376 244.794C249.379 244.823 249.382 244.855 249.384 244.884C249.392 244.945 249.4 245.005 249.41 245.069L249.429 245.162C249.437 245.194 249.442 245.225 249.45 245.257C249.426 245.237 249.403 245.217 249.382 245.194C249.358 245.17 249.34 245.147 249.316 245.124C249.295 245.101 249.277 245.075 249.256 245.049C249.235 245.023 249.217 244.997 249.198 244.968C249.162 244.913 249.128 244.855 249.099 244.797C249.083 244.768 249.067 244.736 249.054 244.707L249.033 244.661L249.015 244.615C249.002 244.583 248.992 244.551 248.981 244.519C248.971 244.487 248.96 244.453 248.95 244.421C248.939 244.389 248.931 244.354 248.923 244.32C248.916 244.285 248.908 244.253 248.9 244.218C248.887 244.152 248.876 244.082 248.866 244.013C248.858 243.943 248.85 243.877 248.848 243.807C248.84 243.668 248.84 243.532 248.848 243.396C248.853 243.33 248.855 243.26 248.863 243.194C248.871 243.127 248.879 243.061 248.889 242.994C248.9 242.928 248.91 242.864 248.921 242.797C248.931 242.734 248.944 242.667 248.96 242.606C248.973 242.543 248.989 242.479 249.005 242.418C249.02 242.355 249.036 242.294 249.052 242.233L249.041 242.285C249.049 242.219 249.06 242.149 249.067 242.083L249.088 241.883L249.104 241.683C249.107 241.617 249.112 241.55 249.112 241.486C249.112 241.42 249.115 241.356 249.112 241.29L249.109 241.191L249.104 241.096C249.104 241.064 249.099 241.032 249.096 241C249.094 240.968 249.091 240.937 249.086 240.905L249.073 240.809C249.07 240.777 249.062 240.746 249.057 240.714L249.049 240.667L249.039 240.621C249.031 240.589 249.026 240.557 249.018 240.528C249.01 240.497 249.002 240.468 248.994 240.436L248.965 240.343L248.934 240.254C248.923 240.225 248.91 240.193 248.9 240.164C248.887 240.135 248.874 240.106 248.861 240.074C248.848 240.045 248.832 240.016 248.819 239.984L248.772 239.898C248.753 239.869 248.738 239.84 248.719 239.811C248.685 239.753 248.646 239.698 248.604 239.64C248.583 239.611 248.562 239.585 248.541 239.559C248.52 239.53 248.497 239.504 248.473 239.478C248.434 239.417 248.384 239.365 248.329 239.316ZM255.124 236.135C255.077 236.182 255.029 236.231 254.988 236.28L254.922 236.353C254.901 236.379 254.88 236.402 254.862 236.428L254.833 236.465C254.823 236.477 254.815 236.491 254.804 236.503C254.783 236.526 254.768 236.552 254.749 236.578C254.731 236.604 254.715 236.63 254.697 236.653L254.647 236.732L254.6 236.81L254.558 236.888L254.519 236.966C254.506 236.992 254.495 237.021 254.482 237.047C254.459 237.099 254.438 237.154 254.422 237.209C254.417 237.224 254.412 237.235 254.409 237.25L254.398 237.29C254.391 237.316 254.383 237.342 254.377 237.371C254.372 237.397 254.364 237.423 254.359 237.452C254.354 237.478 254.351 237.507 254.346 237.533C254.341 237.559 254.341 237.588 254.336 237.614C254.33 237.64 254.33 237.669 254.328 237.695C254.322 237.75 254.322 237.805 254.322 237.857C254.322 237.883 254.325 237.912 254.325 237.938V237.979C254.325 237.993 254.328 238.008 254.33 238.019L254.338 238.1L254.349 238.184C254.354 238.239 254.367 238.294 254.377 238.349C254.388 238.404 254.404 238.459 254.414 238.517C254.43 238.572 254.446 238.627 254.461 238.685L254.448 238.647C254.474 238.714 254.501 238.781 254.527 238.85C254.553 238.919 254.579 238.986 254.605 239.058C254.658 239.197 254.705 239.345 254.747 239.492C254.768 239.568 254.786 239.643 254.807 239.721C254.825 239.799 254.841 239.877 254.854 239.955C254.859 239.996 254.867 240.034 254.872 240.074L254.888 240.196C254.896 240.277 254.901 240.358 254.906 240.439C254.909 240.52 254.909 240.604 254.904 240.685C254.901 240.766 254.893 240.85 254.883 240.931C254.872 241.012 254.857 241.093 254.841 241.171C254.823 241.249 254.802 241.327 254.778 241.402L254.739 241.515L254.694 241.625C254.66 241.698 254.629 241.767 254.59 241.834C254.571 241.868 254.55 241.9 254.532 241.932L254.501 241.978L254.469 242.025C254.425 242.085 254.377 242.143 254.328 242.198C254.336 242.12 254.349 242.048 254.354 241.973L254.362 241.918L254.367 241.863C254.37 241.825 254.375 241.79 254.377 241.753C254.38 241.715 254.383 241.68 254.385 241.646L254.391 241.538L254.393 241.434V241.33C254.391 241.261 254.388 241.194 254.383 241.125C254.38 241.09 254.377 241.058 254.372 241.023C254.37 240.992 254.364 240.957 254.359 240.925C254.341 240.795 254.317 240.665 254.286 240.537C254.27 240.474 254.254 240.41 254.236 240.346C254.218 240.283 254.199 240.219 254.178 240.158L254.147 240.063L254.113 239.967L254.079 239.872L254.042 239.776L253.969 239.585L253.893 239.391L253.815 239.191C253.788 239.125 253.762 239.055 253.736 238.989L253.728 238.966L253.726 238.951C253.707 238.879 253.689 238.804 253.671 238.728C253.663 238.691 253.657 238.653 253.65 238.616C253.642 238.578 253.636 238.54 253.631 238.5C253.623 238.422 253.613 238.346 253.61 238.265C253.608 238.225 253.608 238.187 253.605 238.147L253.608 238.028C253.608 238.008 253.608 237.988 253.61 237.967L253.616 237.907C253.618 237.866 253.623 237.826 253.629 237.788C253.642 237.707 253.652 237.629 253.673 237.551C253.689 237.472 253.718 237.397 253.741 237.319C253.754 237.281 253.77 237.244 253.786 237.209C253.801 237.172 253.82 237.137 253.835 237.102C253.851 237.067 253.872 237.033 253.89 237.001L253.919 236.952C253.93 236.934 253.94 236.92 253.951 236.902C253.993 236.839 254.04 236.778 254.087 236.723C254.11 236.694 254.137 236.668 254.16 236.642C254.186 236.616 254.213 236.59 254.239 236.567C254.265 236.544 254.294 236.52 254.32 236.497C254.349 236.474 254.375 236.454 254.404 236.434C254.461 236.393 254.519 236.355 254.579 236.324C254.639 236.292 254.7 236.26 254.76 236.237C254.82 236.211 254.883 236.19 254.946 236.173C254.995 236.153 255.058 236.141 255.124 236.135Z" fill="#774621"/>
<path d="M203.683 310.407L203.683 310.407C204.104 310.108 204.411 309.77 204.608 309.289C204.806 308.803 204.897 308.158 204.86 307.239L204.86 307.233H204.86V302.449C204.857 302.226 204.661 302.075 204.408 302.067C204.286 302.062 204.17 302.095 204.084 302.159C204.003 302.219 203.941 302.313 203.929 302.455L203.884 306.33C203.884 306.33 203.884 306.33 203.884 306.331C203.883 306.551 203.802 306.728 203.672 306.851C203.543 306.971 203.375 307.031 203.21 307.033C203.044 307.035 202.875 306.979 202.746 306.857C202.614 306.734 202.535 306.554 202.536 306.329L202.536 306.328H202.536L202.581 302.316C202.574 302.055 202.374 301.907 202.156 301.9C202.047 301.896 201.945 301.929 201.871 301.994C201.8 302.056 201.744 302.158 201.741 302.317C201.741 302.875 201.73 303.6 201.718 304.324L201.718 304.325C201.707 305.048 201.696 305.769 201.696 306.324C201.727 306.755 201.436 307.026 201.119 307.042C200.962 307.049 200.801 306.994 200.681 306.867C200.562 306.74 200.497 306.555 200.504 306.326L200.548 302.344C200.537 302.135 200.425 302.002 200.282 301.94C200.133 301.876 199.946 301.887 199.794 301.986C199.637 302.091 199.567 302.249 199.537 302.457C199.522 302.563 199.518 302.676 199.517 302.796C199.517 302.833 199.517 302.872 199.517 302.911C199.517 302.994 199.517 303.079 199.514 303.16L199.514 303.159L199.364 303.155L199.514 303.16L203.683 310.407ZM203.683 310.407C203.563 310.492 203.329 310.567 203.012 310.618L202.883 310.639L202.886 310.77L203.189 321.788C203.189 321.788 203.189 321.788 203.189 321.788C203.207 322.454 202.687 322.989 202.091 322.989H201.952C201.433 322.989 200.976 322.523 200.993 321.939C200.993 321.939 200.993 321.939 200.993 321.939L201.337 310.774L201.342 310.641M203.683 310.407L201.342 310.641M201.342 310.641L201.21 310.621L201.342 310.641ZM209.364 319.683L209.364 319.683C207.445 317.689 206.481 315.275 206.481 312.442C206.481 309.618 207.442 307.215 209.364 305.212C211.291 303.215 213.601 302.214 216.303 302.214C219.019 302.214 221.332 303.212 223.251 305.212C225.164 307.215 226.123 309.618 226.123 312.442C226.123 315.275 225.167 317.689 223.251 319.683C221.332 321.681 219.019 322.676 216.303 322.676C213.598 322.676 211.285 321.683 209.364 319.683ZM199.369 307.734C199.369 307.733 199.369 307.732 199.369 307.731L199.219 307.733L199.369 307.738L199.369 307.734ZM229.044 321.599V321.599L229.028 311.571L229.027 311.486L228.955 311.442C228.151 310.959 227.603 310.125 227.289 309.129C226.975 308.133 226.899 306.987 227.031 305.902C227.164 304.817 227.504 303.803 228.01 303.069C228.516 302.335 229.175 301.894 229.954 301.904L229.954 301.904C230.92 301.915 231.68 302.437 232.228 303.252C232.778 304.069 233.108 305.174 233.204 306.316C233.299 307.457 233.158 308.622 232.782 309.554C232.405 310.488 231.801 311.17 230.979 311.394L230.865 311.425L230.868 311.543L231.13 321.643L231.13 321.644C231.153 322.527 230.612 322.969 230.102 322.983C229.844 322.991 229.584 322.89 229.387 322.671C229.189 322.452 229.045 322.102 229.044 321.599ZM221.482 317.816L221.483 317.816C222.905 316.323 223.617 314.529 223.617 312.433C223.617 310.341 222.908 308.546 221.482 307.062C220.056 305.577 218.324 304.837 216.295 304.837C214.271 304.837 212.545 305.577 211.126 307.062C209.701 308.546 208.983 310.34 208.983 312.433C208.983 314.532 209.701 316.326 211.127 317.816C212.544 319.304 214.271 320.053 216.295 320.053C218.322 320.053 220.053 319.304 221.482 317.816ZM200.579 310.607L200.641 310.471C200.641 310.471 200.641 310.471 200.641 310.471C200.641 310.471 200.641 310.471 200.641 310.471L200.579 310.607ZM221.958 312.433C221.958 314.068 221.408 315.458 220.298 316.613C219.192 317.762 217.86 318.338 216.295 318.338C214.741 318.338 213.409 317.762 212.302 316.613C211.195 315.458 210.643 314.068 210.643 312.433C210.643 310.81 211.195 309.421 212.302 308.271C213.412 307.122 214.741 306.546 216.295 306.546C219.435 306.549 221.958 309.148 221.958 312.433Z" fill="white" stroke="#53535C" stroke-width="0.3"/>
<path d="M124.507 147.34C126.058 149.214 126.866 151.417 126.825 153.662C126.825 159.497 122.758 159.497 122.758 165.301C122.758 171.104 126.825 171.136 126.825 176.972C126.825 182.807 122.758 182.807 122.758 188.676C122.758 194.544 126.825 194.511 126.825 200.347" stroke="#575761" stroke-width="2" stroke-linecap="round" stroke-linejoin="round"/>
<path d="M129.388 147.34C130.939 149.214 131.747 151.417 131.706 153.662C131.706 159.497 127.639 159.497 127.639 165.301C127.639 171.104 131.706 171.136 131.706 176.972C131.706 182.807 127.639 182.807 127.639 188.676C127.639 194.544 131.706 194.511 131.706 200.347" stroke="#575761" stroke-width="3" stroke-linecap="round" stroke-linejoin="round"/>
<path d="M118.732 145.684C120.648 148.029 121.756 150.735 121.945 153.53C121.945 159.366 117.878 159.366 117.878 165.169C117.878 170.972 121.945 171.004 121.945 176.84C121.945 182.676 117.878 182.676 117.878 188.544C117.878 194.412 121.945 194.379 121.945 200.215" stroke="#575761" stroke-width="3" stroke-linecap="round" stroke-linejoin="round"/>
</g>
<defs>
<filter id="filter0_dddddiii_48_235" x="0" y="0" width="427.721" height="350.883" filterUnits="userSpaceOnUse" color-interpolation-filters="sRGB">
<feFlood flood-opacity="0" result="BackgroundImageFix"/>
<feColorMatrix in="SourceAlpha" type="matrix" values="0 0 0 0 0 0 0 0 0 0 0 0 0 0 0 0 0 0 127 0" result="hardAlpha"/>
<feOffset dy="4"/>
<feGaussianBlur stdDeviation="2"/>
<feComposite in2="hardAlpha" operator="out"/>
<feColorMatrix type="matrix" values="0 0 0 0 0 0 0 0 0 0 0 0 0 0 0 0 0 0 0.25 0"/>
<feBlend mode="normal" in2="BackgroundImageFix" result="effect1_dropShadow_48_235"/>
<feColorMatrix in="SourceAlpha" type="matrix" values="0 0 0 0 0 0 0 0 0 0 0 0 0 0 0 0 0 0 127 0" result="hardAlpha"/>
<feOffset dy="4"/>
<feGaussianBlur stdDeviation="2"/>
<feComposite in2="hardAlpha" operator="out"/>
<feColorMatrix type="matrix" values="0 0 0 0 0 0 0 0 0 0 0 0 0 0 0 0 0 0 0.25 0"/>
<feBlend mode="normal" in2="effect1_dropShadow_48_235" result="effect2_dropShadow_48_235"/>
<feColorMatrix in="SourceAlpha" type="matrix" values="0 0 0 0 0 0 0 0 0 0 0 0 0 0 0 0 0 0 127 0" result="hardAlpha"/>
<feOffset dy="4"/>
<feGaussianBlur stdDeviation="2"/>
<feComposite in2="hardAlpha" operator="out"/>
<feColorMatrix type="matrix" values="0 0 0 0 0 0 0 0 0 0 0 0 0 0 0 0 0 0 0.25 0"/>
<feBlend mode="normal" in2="effect2_dropShadow_48_235" result="effect3_dropShadow_48_235"/>
<feColorMatrix in="SourceAlpha" type="matrix" values="0 0 0 0 0 0 0 0 0 0 0 0 0 0 0 0 0 0 127 0" result="hardAlpha"/>
<feOffset dy="4"/>
<feGaussianBlur stdDeviation="2"/>
<feComposite in2="hardAlpha" operator="out"/>
<feColorMatrix type="matrix" values="0 0 0 0 0 0 0 0 0 0 0 0 0 0 0 0 0 0 0.25 0"/>
<feBlend mode="normal" in2="effect3_dropShadow_48_235" result="effect4_dropShadow_48_235"/>
<feColorMatrix in="SourceAlpha" type="matrix" values="0 0 0 0 0 0 0 0 0 0 0 0 0 0 0 0 0 0 127 0" result="hardAlpha"/>
<feOffset dy="4"/>
<feGaussianBlur stdDeviation="2"/>
<feComposite in2="hardAlpha" operator="out"/>
<feColorMatrix type="matrix" values="0 0 0 0 0 0 0 0 0 0 0 0 0 0 0 0 0 0 0.25 0"/>
<feBlend mode="normal" in2="effect4_dropShadow_48_235" result="effect5_dropShadow_48_235"/>
<feBlend mode="normal" in="SourceGraphic" in2="effect5_dropShadow_48_235" result="shape"/>
<feColorMatrix in="SourceAlpha" type="matrix" values="0 0 0 0 0 0 0 0 0 0 0 0 0 0 0 0 0 0 127 0" result="hardAlpha"/>
<feOffset dy="4"/>
<feGaussianBlur stdDeviation="2"/>
<feComposite in2="hardAlpha" operator="arithmetic" k2="-1" k3="1"/>
<feColorMatrix type="matrix" values="0 0 0 0 0 0 0 0 0 0 0 0 0 0 0 0 0 0 0.25 0"/>
<feBlend mode="normal" in2="shape" result="effect6_innerShadow_48_235"/>
<feColorMatrix in="SourceAlpha" type="matrix" values="0 0 0 0 0 0 0 0 0 0 0 0 0 0 0 0 0 0 127 0" result="hardAlpha"/>
<feOffset dy="4"/>
<feGaussianBlur stdDeviation="2"/>
<feComposite in2="hardAlpha" operator="arithmetic" k2="-1" k3="1"/>
<feColorMatrix type="matrix" values="0 0 0 0 0 0 0 0 0 0 0 0 0 0 0 0 0 0 0.25 0"/>
<feBlend mode="normal" in2="effect6_innerShadow_48_235" result="effect7_innerShadow_48_235"/>
<feColorMatrix in="SourceAlpha" type="matrix" values="0 0 0 0 0 0 0 0 0 0 0 0 0 0 0 0 0 0 127 0" result="hardAlpha"/>
<feOffset dy="4"/>
<feGaussianBlur stdDeviation="2"/>
<feComposite in2="hardAlpha" operator="arithmetic" k2="-1" k3="1"/>
<feColorMatrix type="matrix" values="0 0 0 0 0 0 0 0 0 0 0 0 0 0 0 0 0 0 0.25 0"/>
<feBlend mode="normal" in2="effect7_innerShadow_48_235" result="effect8_innerShadow_48_235"/>
</filter>
<filter id="filter1_dddd_48_235" x="0" y="0" width="427.721" height="350.883" filterUnits="userSpaceOnUse" color-interpolation-filters="sRGB">
<feFlood flood-opacity="0" result="BackgroundImageFix"/>
<feColorMatrix in="SourceAlpha" type="matrix" values="0 0 0 0 0 0 0 0 0 0 0 0 0 0 0 0 0 0 127 0" result="hardAlpha"/>
<feOffset dy="4"/>
<feGaussianBlur stdDeviation="2"/>
<feComposite in2="hardAlpha" operator="out"/>
<feColorMatrix type="matrix" values="0 0 0 0 0 0 0 0 0 0 0 0 0 0 0 0 0 0 0.25 0"/>
<feBlend mode="normal" in2="BackgroundImageFix" result="effect1_dropShadow_48_235"/>
<feColorMatrix in="SourceAlpha" type="matrix" values="0 0 0 0 0 0 0 0 0 0 0 0 0 0 0 0 0 0 127 0" result="hardAlpha"/>
<feOffset dy="4"/>
<feGaussianBlur stdDeviation="2"/>
<feComposite in2="hardAlpha" operator="out"/>
<feColorMatrix type="matrix" values="0 0 0 0 0 0 0 0 0 0 0 0 0 0 0 0 0 0 0.25 0"/>
<feBlend mode="normal" in2="effect1_dropShadow_48_235" result="effect2_dropShadow_48_235"/>
<feColorMatrix in="SourceAlpha" type="matrix" values="0 0 0 0 0 0 0 0 0 0 0 0 0 0 0 0 0 0 127 0" result="hardAlpha"/>
<feOffset dy="4"/>
<feGaussianBlur stdDeviation="2"/>
<feComposite in2="hardAlpha" operator="out"/>
<feColorMatrix type="matrix" values="0 0 0 0 0 0 0 0 0 0 0 0 0 0 0 0 0 0 0.25 0"/>
<feBlend mode="normal" in2="effect2_dropShadow_48_235" result="effect3_dropShadow_48_235"/>
<feColorMatrix in="SourceAlpha" type="matrix" values="0 0 0 0 0 0 0 0 0 0 0 0 0 0 0 0 0 0 127 0" result="hardAlpha"/>
<feOffset dy="4"/>
<feGaussianBlur stdDeviation="2"/>
<feComposite in2="hardAlpha" operator="out"/>
<feColorMatrix type="matrix" values="0 0 0 0 0 0 0 0 0 0 0 0 0 0 0 0 0 0 0.25 0"/>
<feBlend mode="normal" in2="effect3_dropShadow_48_235" result="effect4_dropShadow_48_235"/>
<feBlend mode="normal" in="SourceGraphic" in2="effect4_dropShadow_48_235" result="shape"/>
</filter>
<filter id="filter2_d_48_235" x="47.1777" y="0" width="333.365" height="339.1" filterUnits="userSpaceOnUse" color-interpolation-filters="sRGB">
<feFlood flood-opacity="0" result="BackgroundImageFix"/>
<feColorMatrix in="SourceAlpha" type="matrix" values="0 0 0 0 0 0 0 0 0 0 0 0 0 0 0 0 0 0 127 0" result="hardAlpha"/>
<feOffset dy="4"/>
<feGaussianBlur stdDeviation="2"/>
<feComposite in2="hardAlpha" operator="out"/>
<feColorMatrix type="matrix" values="0 0 0 0 0 0 0 0 0 0 0 0 0 0 0 0 0 0 0.25 0"/>
<feBlend mode="normal" in2="BackgroundImageFix" result="effect1_dropShadow_48_235"/>
<feBlend mode="normal" in="SourceGraphic" in2="effect1_dropShadow_48_235" result="shape"/>
</filter>
<filter id="filter3_d_48_235" x="0" y="46" width="427.721" height="304.883" filterUnits="userSpaceOnUse" color-interpolation-filters="sRGB">
<feFlood flood-opacity="0" result="BackgroundImageFix"/>
<feColorMatrix in="SourceAlpha" type="matrix" values="0 0 0 0 0 0 0 0 0 0 0 0 0 0 0 0 0 0 127 0" result="hardAlpha"/>
<feOffset dy="4"/>
<feGaussianBlur stdDeviation="2"/>
<feComposite in2="hardAlpha" operator="out"/>
<feColorMatrix type="matrix" values="0 0 0 0 0 0 0 0 0 0 0 0 0 0 0 0 0 0 0.25 0"/>
<feBlend mode="normal" in2="BackgroundImageFix" result="effect1_dropShadow_48_235"/>
<feBlend mode="normal" in="SourceGraphic" in2="effect1_dropShadow_48_235" result="shape"/>
</filter>
<filter id="filter4_ddd_48_235" x="112" y="46" width="204" height="241" filterUnits="userSpaceOnUse" color-interpolation-filters="sRGB">
<feFlood flood-opacity="0" result="BackgroundImageFix"/>
<feColorMatrix in="SourceAlpha" type="matrix" values="0 0 0 0 0 0 0 0 0 0 0 0 0 0 0 0 0 0 127 0" result="hardAlpha"/>
<feOffset dy="4"/>
<feGaussianBlur stdDeviation="2"/>
<feComposite in2="hardAlpha" operator="out"/>
<feColorMatrix type="matrix" values="0 0 0 0 0 0 0 0 0 0 0 0 0 0 0 0 0 0 0.25 0"/>
<feBlend mode="normal" in2="BackgroundImageFix" result="effect1_dropShadow_48_235"/>
<feColorMatrix in="SourceAlpha" type="matrix" values="0 0 0 0 0 0 0 0 0 0 0 0 0 0 0 0 0 0 127 0" result="hardAlpha"/>
<feOffset dy="4"/>
<feGaussianBlur stdDeviation="2"/>
<feComposite in2="hardAlpha" operator="out"/>
<feColorMatrix type="matrix" values="0 0 0 0 0 0 0 0 0 0 0 0 0 0 0 0 0 0 0.25 0"/>
<feBlend mode="normal" in2="effect1_dropShadow_48_235" result="effect2_dropShadow_48_235"/>
<feColorMatrix in="SourceAlpha" type="matrix" values="0 0 0 0 0 0 0 0 0 0 0 0 0 0 0 0 0 0 127 0" result="hardAlpha"/>
<feOffset dy="4"/>
<feGaussianBlur stdDeviation="2"/>
<feComposite in2="hardAlpha" operator="out"/>
<feColorMatrix type="matrix" values="0 0 0 0 0 0 0 0 0 0 0 0 0 0 0 0 0 0 0.25 0"/>
<feBlend mode="normal" in2="effect2_dropShadow_48_235" result="effect3_dropShadow_48_235"/>
<feBlend mode="normal" in="SourceGraphic" in2="effect3_dropShadow_48_235" result="shape"/>
</filter>
<filter id="filter5_d_48_235" x="71.5801" y="277.62" width="287.814" height="18.1096" filterUnits="userSpaceOnUse" color-interpolation-filters="sRGB">
<feFlood flood-opacity="0" result="BackgroundImageFix"/>
<feColorMatrix in="SourceAlpha" type="matrix" values="0 0 0 0 0 0 0 0 0 0 0 0 0 0 0 0 0 0 127 0" result="hardAlpha"/>
<feOffset dy="4"/>
<feGaussianBlur stdDeviation="2"/>
<feComposite in2="hardAlpha" operator="out"/>
<feColorMatrix type="matrix" values="0 0 0 0 0 0 0 0 0 0 0 0 0 0 0 0 0 0 0.25 0"/>
<feBlend mode="normal" in2="BackgroundImageFix" result="effect1_dropShadow_48_235"/>
<feBlend mode="normal" in="SourceGraphic" in2="effect1_dropShadow_48_235" result="shape"/>
</filter>
<filter id="filter6_d_48_235" x="71.5679" y="324.806" width="287.838" height="12.3118" filterUnits="userSpaceOnUse" color-interpolation-filters="sRGB">
<feFlood flood-opacity="0" result="BackgroundImageFix"/>
<feColorMatrix in="SourceAlpha" type="matrix" values="0 0 0 0 0 0 0 0 0 0 0 0 0 0 0 0 0 0 127 0" result="hardAlpha"/>
<feOffset dy="4"/>
<feGaussianBlur stdDeviation="2"/>
<feComposite in2="hardAlpha" operator="out"/>
<feColorMatrix type="matrix" values="0 0 0 0 0 0 0 0 0 0 0 0 0 0 0 0 0 0 0.25 0"/>
<feBlend mode="normal" in2="BackgroundImageFix" result="effect1_dropShadow_48_235"/>
<feBlend mode="normal" in="SourceGraphic" in2="effect1_dropShadow_48_235" result="shape"/>
</filter>
<clipPath id="clip0_48_235">
<rect width="196" height="233" fill="white" transform="translate(116 46)"/>
</clipPath>
</defs>
</svg>
