<svg width="101" height="93" viewBox="0 0 101 93" fill="none" xmlns="http://www.w3.org/2000/svg">
<g filter="url(#filter0_dddd_169_775)">
<g filter="url(#filter1_d_169_775)">
<path d="M86.5469 40.6699C86.5469 63.1312 70.4083 81.3397 50.5004 81.3397C30.5924 81.3397 14.4539 63.1312 14.4539 40.6699C14.4539 18.2085 31.5759 4.06699 50.5004 0C69.0643 5.08373 86.5469 18.2085 86.5469 40.6699Z" fill="white"/>
<path d="M85.5469 40.6699C85.5469 62.6958 69.746 80.3397 50.5004 80.3397C31.2547 80.3397 15.4539 62.6958 15.4539 40.6699C15.4539 18.9196 31.9449 5.09848 50.472 1.0295C68.7403 6.10249 85.5469 18.9529 85.5469 40.6699Z" stroke="#575761" stroke-width="2"/>
</g>
<path d="M78.058 39.6531C78.058 57.8097 65.3774 72.0191 50.3197 72.0191C35.2619 72.0191 22.5813 57.8097 22.5813 39.6531C22.5813 30.6984 25.7019 24.1184 30.7246 19.0215C35.6634 14.0097 42.5204 10.3553 50.3199 7.421C57.8559 10.2561 64.713 13.9095 69.7174 18.9489C74.8175 24.0845 78.058 30.7191 78.058 39.6531Z" fill="white" stroke="#575761" stroke-width="4"/>
<g filter="url(#filter2_d_169_775)">
<path d="M13.9867 78.5231L5.90251 73.9586H32.0321V83.9528H5.89455L13.9863 79.3941L14.7587 78.959L13.9867 78.5231Z" fill="#575761" stroke="#080606"/>
<path d="M32.0283 83.6714L23.0338 80.6221H32.0283V83.6714Z" fill="#575761" stroke="#080606"/>
<path d="M87.1915 78.525L86.4378 78.9586L87.1916 79.3919L95.1267 83.9527H69.5002V73.9585H95.1289L87.1915 78.525Z" fill="#575761" stroke="#080606"/>
<path d="M69.5034 83.6671V80.622H78.3178L69.5034 83.6671Z" fill="#575761" stroke="#080606"/>
<g clip-path="url(#clip0_169_775)" filter="url(#filter3_ddd_169_775)">
<path d="M46.7878 42.9402C46.4311 42.9402 46.1418 43.3127 46.1418 43.7721V44.8709C46.1418 45.3304 46.4311 45.7029 46.7878 45.7029C47.1445 45.7029 47.4338 45.3304 47.4338 44.8709V43.7721C47.4338 43.3127 47.1445 42.9402 46.7878 42.9402Z" fill="#575761"/>
<path d="M54.4477 42.9402C54.091 42.9402 53.8018 43.3127 53.8018 43.7721V44.8709C53.8018 45.3304 54.091 45.7029 54.4477 45.7029C54.8045 45.7029 55.0937 45.3304 55.0937 44.8709V43.7721C55.0936 43.3127 54.8044 42.9402 54.4477 42.9402Z" fill="#575761"/>
<path d="M52.5577 47.4902C52.3055 47.1651 51.8964 47.1652 51.6442 47.4902C51.37 47.8434 51.0054 48.0379 50.6177 48.0379C50.23 48.0379 49.8654 47.8434 49.5912 47.4902C49.339 47.1652 48.9299 47.1652 48.6778 47.4902C48.4254 47.815 48.4254 48.3419 48.6778 48.6666C49.1959 49.3342 49.8849 49.7017 50.6177 49.7017C51.3505 49.7017 52.0396 49.3341 52.5577 48.6666C52.81 48.3418 52.81 47.8149 52.5577 47.4902Z" fill="#575761"/>
<path d="M50.6178 58.9136C49.668 58.9136 48.8953 59.9089 48.8953 61.1322C48.8953 62.3554 49.668 63.3507 50.6178 63.3507C51.5676 63.3507 52.3403 62.3554 52.3403 61.1322C52.3403 59.9089 51.5676 58.9136 50.6178 58.9136ZM50.6178 61.6867C50.3803 61.6867 50.1872 61.4379 50.1872 61.1322C50.1872 60.8264 50.3804 60.5776 50.6178 60.5776C50.8552 60.5776 51.0484 60.8264 51.0484 61.1322C51.0484 61.4379 50.8552 61.6867 50.6178 61.6867Z" fill="#575761"/>
<path d="M65.9191 64.1826C65.5624 64.1826 65.2731 64.5551 65.2731 65.0145V66.1719C65.2731 66.3899 65.1338 66.5674 64.9627 66.5674H54.2781V60.4407C54.5314 60.5293 54.7754 60.5774 55.0032 60.5774C55.4787 60.5774 55.884 60.3798 56.1755 60.0059C56.4674 59.6312 56.6217 59.1095 56.6217 58.4972C56.6217 57.8859 56.4628 57.1848 56.177 56.4682C56.8065 56.4257 57.3782 56.0993 57.817 55.588H60.3724C63.0747 55.588 65.2732 58.4086 65.2732 61.8756C65.2732 62.3351 65.5625 62.7076 65.9192 62.7076C66.2759 62.7076 66.5652 62.3351 66.5652 61.8756C66.5652 57.4911 63.7872 53.9241 60.3725 53.9241H58.604C58.6599 53.6491 58.6902 53.3607 58.6902 53.0635C58.6902 52.0568 58.3477 51.152 57.8058 50.5275C58.8126 49.2746 59.542 47.8399 59.96 46.3111C61.279 45.6813 62.2213 44.0489 62.2213 42.1384C62.2213 40.4331 61.4706 38.9496 60.3716 38.2026V27.6484C62.0169 26.8434 63.1273 24.8124 63.1273 22.5029C63.1273 19.4658 61.2032 16.9949 58.8382 16.9949C58.4881 16.9949 58.1442 17.0483 57.8099 17.1544C57.1325 15.1886 55.6043 13.8775 53.8872 13.8775C52.6344 13.8775 51.4684 14.5729 50.6645 15.7503C49.8607 14.5729 48.6946 13.8775 47.4418 13.8775C45.7107 13.8775 44.1806 15.1989 43.5095 17.1825C43.1489 17.0579 42.7771 16.995 42.3976 16.995C40.0326 16.995 38.1085 19.4659 38.1085 22.503C38.1085 24.8125 39.2189 26.8435 40.8642 27.6485V29.2965C40.8642 29.756 41.1535 30.1285 41.5102 30.1285C41.8669 30.1285 42.1562 29.756 42.1562 29.2965V27.8708H43.6415C43.9983 27.8708 44.2875 27.4983 44.2875 27.0388C44.2875 26.5793 43.9983 26.2068 43.6415 26.2068H41.5959C40.2997 25.7473 39.4005 24.2381 39.4005 22.503C39.4005 20.3833 40.745 18.6589 42.3977 18.6589C42.6641 18.6589 42.9253 18.7035 43.1783 18.7914C43.1618 18.9881 43.1529 19.1863 43.1529 19.3855C43.1529 19.845 43.4422 20.2175 43.7989 20.2175C44.1556 20.2175 44.4448 19.845 44.4448 19.3855C44.4448 19.0592 44.4778 18.7375 44.5404 18.4254H44.5399C44.8802 16.7261 46.0705 15.5414 47.442 15.5414C48.5565 15.5414 49.5728 16.3281 50.0938 17.5947C50.2059 17.8669 50.4254 18.0371 50.6646 18.0371C50.9038 18.0371 51.1233 17.8669 51.2353 17.5947C51.7566 16.3281 52.7728 15.5414 53.8874 15.5414C55.2505 15.5414 56.4428 16.7212 56.7871 18.4103C56.7882 18.4154 56.7902 18.4254 56.7902 18.4254C56.8527 18.7369 56.8846 19.058 56.8846 19.3855C56.8846 19.845 57.1738 20.2175 57.5306 20.2175C57.8873 20.2175 58.1765 19.845 58.1765 19.3855C58.1765 19.1758 58.1665 18.968 58.1483 18.7621C58.3728 18.6942 58.6033 18.6588 58.8383 18.6588C60.4908 18.6588 61.8354 20.3832 61.8354 22.5029C61.8354 24.238 60.9362 25.7472 59.6401 26.2067H56.1301C55.7733 26.2067 55.4841 26.5792 55.4841 27.0387C55.4841 27.4982 55.7733 27.8707 56.1301 27.8707H59.0798V32.6241H54.8812V30.8177C54.8812 30.3582 54.592 29.9857 54.2353 29.9857C53.8785 29.9857 53.5893 30.3582 53.5893 30.8177V32.6241H51.2639V30.8177C51.2639 30.3582 50.9747 29.9857 50.618 29.9857C50.2612 29.9857 49.972 30.3582 49.972 30.8177V32.6241H47.6467V30.8177C47.6467 30.3582 47.3575 29.9857 47.0008 29.9857C46.644 29.9857 46.3548 30.3582 46.3548 30.8177V32.6241H42.1562V32.2913C42.1562 31.8318 41.8669 31.4593 41.5102 31.4593C41.1535 31.4593 40.8642 31.8318 40.8642 32.2913V36.3955V36.4595V38.2024C39.7653 38.9494 39.0145 40.433 39.0145 42.1381C39.0145 44.0488 39.9568 45.6811 41.2758 46.3109C41.6938 47.8397 42.4232 49.2742 43.43 50.5273C42.888 51.1519 42.5456 52.0565 42.5456 53.0633C42.5456 53.3605 42.5759 53.6488 42.6318 53.9239H40.8633C37.4487 53.9239 34.6707 57.491 34.6707 61.8754V66.1717C34.6707 67.3073 35.3895 68.2312 36.2729 68.2312H64.9627C65.8462 68.2312 66.565 67.3073 66.565 66.1717V65.0144C66.565 64.5551 66.2758 64.1826 65.9191 64.1826ZM60.3715 43.2457V40.2789C60.7175 40.7726 60.9293 41.4237 60.9293 42.1384C60.9293 42.8714 60.7066 43.5381 60.3445 44.036C60.3623 43.7739 60.3715 43.5103 60.3715 43.2457ZM40.3065 42.1384C40.3065 41.4239 40.5181 40.7726 40.8643 40.2789V43.2457C40.8643 43.5103 40.8735 43.7739 40.8913 44.036C40.5291 43.538 40.3065 42.8713 40.3065 42.1384ZM55.2635 58.8273C55.2208 58.8822 55.1259 58.9136 55.0032 58.9136C54.4831 58.9136 53.5415 58.3784 52.6099 57.1828C52.0499 56.4639 51.6773 55.7417 51.4682 55.1346L52.7566 56.7881C52.8826 56.9498 53.0475 57.0308 53.2126 57.0308C53.3781 57.0308 53.5439 56.9491 53.6702 56.7861C53.922 56.4606 53.9212 55.9338 53.6685 55.6096L52.47 54.0713C52.4923 54.0661 52.5146 54.0614 52.5369 54.0559C52.9769 54.3359 53.4805 54.7857 53.9822 55.4297C54.9131 56.6246 55.3297 57.8313 55.3297 58.4974C55.3297 58.653 55.3057 58.7733 55.2635 58.8273ZM56.0357 54.8093H55.2967C55.1698 54.6196 55.0358 54.4329 54.894 54.251C54.6683 53.9613 54.4334 53.6959 54.1942 53.4563C55.1171 53.0119 56.0016 52.394 56.8044 51.6231C57.1626 51.938 57.3983 52.4659 57.3983 53.0633C57.3982 54.0261 56.7869 54.8093 56.0357 54.8093ZM59.0796 39.7233H58.8595C57.1972 39.7233 55.6651 39.0036 54.4376 37.7969C54.5545 37.6329 54.6675 37.4643 54.7767 37.2914H59.0796V39.7233ZM42.1561 34.2879H59.0795V35.6276H42.1561V34.2879ZM42.1562 37.2915H52.9997C51.7047 38.801 49.9872 39.7233 48.1038 39.7233H45.7685C44.4947 39.7233 43.2532 39.3005 42.1562 38.4964V37.2915H42.1562ZM42.1561 43.2457V40.3653C43.282 41.0364 44.5119 41.3873 45.7683 41.3873H48.1036C50.1383 41.3873 52.0094 40.4732 53.4822 38.949C54.9549 40.4729 56.8252 41.3873 58.8595 41.3873H59.0796V43.2457C59.0796 45.6539 58.1602 47.9884 56.4908 49.8187C54.8756 51.5896 52.8032 52.6053 50.8047 52.6053H50.431C48.4324 52.6053 46.36 51.5897 44.7449 49.8187C43.0754 47.9884 42.1561 45.6539 42.1561 43.2457ZM43.8375 53.0635C43.8375 52.466 44.0731 51.9381 44.4313 51.6233C45.234 52.3942 46.1186 53.0121 47.0414 53.4565C46.8023 53.6961 46.5674 53.9613 46.3416 54.2512C46.1998 54.4332 46.0658 54.6199 45.939 54.8095H45.1999V54.8094C44.4486 54.8093 43.8375 54.0261 43.8375 53.0635ZM47.2535 55.4296C47.7551 54.7855 48.2587 54.3358 48.6986 54.0558C48.721 54.0612 48.7432 54.0659 48.7656 54.0711L47.5671 55.6095C47.3144 55.9338 47.3137 56.4606 47.5655 56.786C47.6917 56.9491 47.8573 57.0307 48.0231 57.0307C48.188 57.0307 48.353 56.9498 48.4791 56.788L49.7674 55.1343C49.5584 55.7415 49.1858 56.4638 48.6257 57.1826C47.6941 58.3784 46.7526 58.9136 46.2325 58.9136C46.1098 58.9136 46.0149 58.8822 45.9721 58.8274C45.93 58.7734 45.9057 58.653 45.9057 58.4973C45.9059 57.8313 46.3226 56.6244 47.2535 55.4296ZM50.1871 66.5675C50.1871 66.2617 50.3804 66.013 50.6177 66.013C50.8552 66.013 51.0483 66.2618 51.0483 66.5675H50.1871ZM52.9864 66.5675H52.3403C52.3403 65.3443 51.5676 64.349 50.6178 64.349C49.668 64.349 48.8953 65.3443 48.8953 66.5675H36.2729C36.1018 66.5675 35.9625 66.39 35.9625 66.172V61.8757C35.9625 58.4087 38.1609 55.5881 40.8633 55.5881H43.4187C43.8576 56.0993 44.4292 56.4257 45.0587 56.4683C44.7729 57.1849 44.614 57.886 44.614 58.4973C44.614 59.1096 44.7683 59.6313 45.0603 60.006C45.3517 60.3799 45.757 60.5775 46.2326 60.5775C47.2063 60.5775 48.4727 59.7283 49.5377 58.3613C49.9707 57.8055 50.3355 57.2069 50.6179 56.608C50.9002 57.2068 51.2651 57.8055 51.6981 58.3613C52.1072 58.8862 52.5459 59.334 52.9864 59.6875V66.5675Z" fill="#575761"/>
<path d="M42.7071 59.2607C42.7366 59.2249 42.7861 59.2226 42.818 59.2557C42.85 59.2887 42.852 59.344 42.8225 59.3797L42.1796 60.1577L42.1785 60.1592C42.0999 60.2656 42.046 60.3639 42.0219 60.4538C42.0006 60.5332 42.0037 60.6054 42.0353 60.6684C42.0521 60.7022 42.0466 60.7437 42.0243 60.7709L41.719 61.1404C41.6891 61.1039 41.6654 61.0743 41.6496 61.0551C41.6424 61.0444 41.6342 61.034 41.6256 61.024L41.6249 61.0248C41.6208 61.0198 41.6163 61.0152 41.6118 61.0106L41.8729 60.6945C41.8423 60.6031 41.8426 60.506 41.8708 60.4027C41.901 60.2906 41.9652 60.1711 42.0576 60.0467C42.0597 60.0436 42.0614 60.0406 42.0638 60.0379L42.7064 59.2599L42.7071 59.2607ZM41.3261 61.3446C41.2973 61.3085 41.3 61.2529 41.3323 61.2206C41.3646 61.1884 41.4144 61.1914 41.4432 61.2275C41.7664 61.6323 42.7655 62.83 43.0423 63.2777C43.4074 63.8556 42.8421 64.0376 42.6545 63.8272C42.1861 63.3207 41.1915 62.0293 40.7543 61.4817C40.597 61.5562 40.4441 61.5677 40.2906 61.5186C40.1254 61.466 39.9637 61.3427 39.7995 61.1534L39.7975 61.1511C39.6724 61.0036 39.5746 60.8581 39.5038 60.7141C39.4313 60.5659 39.387 60.4192 39.3712 60.2737C39.3544 60.117 39.3675 59.9711 39.4052 59.8417C39.4495 59.6896 39.5282 59.5609 39.6312 59.4653C39.7349 59.3693 39.8624 59.3071 40.0045 59.2879C40.1227 59.2722 40.2515 59.2856 40.3847 59.3344C40.5692 59.4016 40.7842 59.5686 40.9624 59.7829C41.0939 59.9407 41.2066 60.1254 41.2736 60.3155C41.3433 60.5137 41.3646 60.7187 41.3086 60.9107C41.2756 61.0244 41.2159 61.1311 41.1231 61.2275C41.0912 61.2605 41.0417 61.2582 41.0122 61.2229C40.9827 61.1872 40.9847 61.1319 41.0163 61.0989C41.0881 61.024 41.1341 60.9422 41.1592 60.8558C41.2025 60.7072 41.1843 60.5425 41.1273 60.3804C41.0675 60.2107 40.9662 60.0448 40.8473 59.9023C40.6866 59.7096 40.496 59.5602 40.3353 59.5014C40.225 59.4615 40.1196 59.45 40.0231 59.463C39.9111 59.4784 39.8108 59.5264 39.7308 59.6013C39.6505 59.6762 39.589 59.7771 39.5536 59.8973C39.523 60.0022 39.5124 60.1227 39.5265 60.2529C39.5399 60.3758 39.578 60.5014 39.6405 60.6296C39.7061 60.7613 39.7961 60.8946 39.9118 61.0309L39.9125 61.0321C40.0574 61.1991 40.1965 61.3066 40.3342 61.3504C40.4644 61.3919 40.597 61.3757 40.7354 61.2986C40.767 61.2782 40.8079 61.2851 40.8329 61.3166C41.2595 61.8508 42.297 63.1951 42.7565 63.6932C42.9561 63.7842 43.0667 63.6721 42.9712 63.4743C42.8225 63.1656 41.5449 61.6196 41.3261 61.3446ZM40.9119 62.1169L39.9104 63.3284C39.9084 63.3307 39.9067 63.333 39.9043 63.3353C39.758 63.512 40.0169 63.7692 40.1776 63.5972L41.1503 62.4202L41.2547 62.5527L40.2896 63.7205C40.2875 63.7232 40.2855 63.7255 40.2827 63.7281C40.225 63.7823 40.167 63.8176 40.1083 63.8322C40.0478 63.8476 39.9884 63.8407 39.9314 63.8107C39.9218 63.8065 39.9128 63.8011 39.9049 63.793L39.7665 63.6498C39.7645 63.6475 39.7624 63.6456 39.7604 63.6429C39.7068 63.5738 39.6814 63.5 39.6882 63.4221C39.6948 63.3484 39.7298 63.2766 39.7961 63.2074L40.8072 61.984L40.9119 62.1169ZM41.9615 61.4387L42.0209 61.3669C42.0504 61.3312 42.1002 61.3289 42.1318 61.3619C42.1634 61.3949 42.1658 61.4502 42.1363 61.486L42.0676 61.5689L41.9615 61.4387ZM42.9513 59.5176C42.9808 59.4818 43.0303 59.4795 43.0622 59.5126C43.0941 59.5456 43.0962 59.6009 43.0667 59.6366L42.5031 60.319C42.4735 60.3547 42.4241 60.357 42.3921 60.324C42.3602 60.2909 42.3581 60.2356 42.3877 60.1999L42.9513 59.5176ZM43.1951 59.7698C43.2246 59.7341 43.2741 59.7318 43.306 59.7649C43.338 59.7979 43.34 59.8532 43.3105 59.8889L42.7473 60.5709C42.7177 60.6066 42.6683 60.6089 42.6363 60.5759C42.6044 60.5428 42.6023 60.4875 42.6319 60.4518L43.1951 59.7698ZM43.4479 60.0321C43.4774 59.9964 43.5269 59.9941 43.5588 60.0271C43.5908 60.0602 43.5928 60.1158 43.5633 60.1512L42.9204 60.9295C42.918 60.9322 42.9155 60.9345 42.9131 60.9372C42.7668 61.0947 42.6271 61.1857 42.4935 61.2114C42.3485 61.2394 42.2156 61.1933 42.0937 61.0743C42.0611 61.0424 42.058 60.9868 42.0861 60.9507C42.1146 60.9142 42.1644 60.9107 42.1967 60.9422C42.2809 61.0244 42.3709 61.0566 42.466 61.0378C42.5683 61.0182 42.681 60.9426 42.8039 60.8101L42.8046 60.8093L43.4472 60.0317L43.4479 60.0321Z" fill="black"/>
</g>
<path d="M51.2313 80.0793L51.2108 80.0784L51.1903 80.0792L19.949 81.3437V70.1158L50.6419 67.1703L81.5823 70.1162V81.343L51.2313 80.0793Z" fill="#575761" stroke="#080606"/>
</g>
</g>
<path d="M25.478 77L24.638 75.44H24.512V77H23.336V72.77H25.19C25.53 72.77 25.818 72.83 26.054 72.95C26.29 73.066 26.468 73.228 26.588 73.436C26.708 73.64 26.768 73.87 26.768 74.126C26.768 74.414 26.688 74.668 26.528 74.888C26.372 75.104 26.142 75.258 25.838 75.35L26.792 77H25.478ZM24.512 74.636H25.094C25.254 74.636 25.374 74.598 25.454 74.522C25.534 74.446 25.574 74.336 25.574 74.192C25.574 74.056 25.532 73.95 25.448 73.874C25.368 73.794 25.25 73.754 25.094 73.754H24.512V74.636ZM30.5188 75.278C30.5188 75.37 30.5128 75.462 30.5008 75.554H28.2748C28.2868 75.738 28.3368 75.876 28.4248 75.968C28.5168 76.056 28.6328 76.1 28.7728 76.1C28.9688 76.1 29.1088 76.012 29.1928 75.836H30.4468C30.3948 76.068 30.2928 76.276 30.1408 76.46C29.9928 76.64 29.8048 76.782 29.5768 76.886C29.3488 76.99 29.0968 77.042 28.8208 77.042C28.4888 77.042 28.1928 76.972 27.9328 76.832C27.6768 76.692 27.4748 76.492 27.3268 76.232C27.1828 75.972 27.1108 75.666 27.1108 75.314C27.1108 74.962 27.1828 74.658 27.3268 74.402C27.4708 74.142 27.6708 73.942 27.9268 73.802C28.1868 73.662 28.4848 73.592 28.8208 73.592C29.1528 73.592 29.4468 73.66 29.7028 73.796C29.9588 73.932 30.1588 74.128 30.3028 74.384C30.4468 74.636 30.5188 74.934 30.5188 75.278ZM29.3188 74.984C29.3188 74.84 29.2708 74.728 29.1748 74.648C29.0788 74.564 28.9588 74.522 28.8148 74.522C28.6708 74.522 28.5528 74.562 28.4608 74.642C28.3688 74.718 28.3088 74.832 28.2808 74.984H29.3188ZM32.4341 77.042C32.1301 77.042 31.8581 76.992 31.6181 76.892C31.3821 76.788 31.1941 76.648 31.0541 76.472C30.9181 76.292 30.8421 76.09 30.8261 75.866H31.9661C31.9821 75.974 32.0321 76.058 32.1161 76.118C32.2001 76.178 32.3041 76.208 32.4281 76.208C32.5241 76.208 32.6001 76.188 32.6561 76.148C32.7121 76.108 32.7401 76.056 32.7401 75.992C32.7401 75.908 32.6941 75.846 32.6021 75.806C32.5101 75.766 32.3581 75.722 32.1461 75.674C31.9061 75.626 31.7061 75.572 31.5461 75.512C31.3861 75.452 31.2461 75.354 31.1261 75.218C31.0101 75.082 30.9521 74.898 30.9521 74.666C30.9521 74.466 31.0061 74.286 31.1141 74.126C31.2221 73.962 31.3801 73.832 31.5881 73.736C31.8001 73.64 32.0541 73.592 32.3501 73.592C32.7901 73.592 33.1361 73.7 33.3881 73.916C33.6401 74.132 33.7861 74.416 33.8261 74.768H32.7641C32.7441 74.66 32.6961 74.578 32.6201 74.522C32.5481 74.462 32.4501 74.432 32.3261 74.432C32.2301 74.432 32.1561 74.45 32.1041 74.486C32.0561 74.522 32.0321 74.572 32.0321 74.636C32.0321 74.716 32.0781 74.778 32.1701 74.822C32.2621 74.862 32.4101 74.904 32.6141 74.948C32.8581 75 33.0601 75.058 33.2201 75.122C33.3841 75.186 33.5261 75.29 33.6461 75.434C33.7701 75.574 33.8321 75.766 33.8321 76.01C33.8321 76.206 33.7741 76.382 33.6581 76.538C33.5461 76.694 33.3841 76.818 33.1721 76.91C32.9641 76.998 32.7181 77.042 32.4341 77.042ZM37.6262 75.278C37.6262 75.37 37.6202 75.462 37.6082 75.554H35.3822C35.3942 75.738 35.4442 75.876 35.5322 75.968C35.6242 76.056 35.7402 76.1 35.8802 76.1C36.0762 76.1 36.2162 76.012 36.3002 75.836H37.5542C37.5022 76.068 37.4002 76.276 37.2482 76.46C37.1002 76.64 36.9122 76.782 36.6842 76.886C36.4562 76.99 36.2042 77.042 35.9282 77.042C35.5962 77.042 35.3002 76.972 35.0402 76.832C34.7842 76.692 34.5822 76.492 34.4342 76.232C34.2902 75.972 34.2182 75.666 34.2182 75.314C34.2182 74.962 34.2902 74.658 34.4342 74.402C34.5782 74.142 34.7782 73.942 35.0342 73.802C35.2942 73.662 35.5922 73.592 35.9282 73.592C36.2602 73.592 36.5542 73.66 36.8102 73.796C37.0662 73.932 37.2662 74.128 37.4102 74.384C37.5542 74.636 37.6262 74.934 37.6262 75.278ZM36.4262 74.984C36.4262 74.84 36.3782 74.728 36.2822 74.648C36.1862 74.564 36.0662 74.522 35.9222 74.522C35.7782 74.522 35.6602 74.562 35.5682 74.642C35.4762 74.718 35.4162 74.832 35.3882 74.984H36.4262ZM39.2835 74.102C39.3755 73.946 39.5055 73.822 39.6735 73.73C39.8415 73.638 40.0395 73.592 40.2675 73.592C40.5355 73.592 40.7775 73.662 40.9935 73.802C41.2135 73.942 41.3855 74.142 41.5095 74.402C41.6375 74.662 41.7015 74.966 41.7015 75.314C41.7015 75.662 41.6375 75.968 41.5095 76.232C41.3855 76.492 41.2135 76.692 40.9935 76.832C40.7775 76.972 40.5355 77.042 40.2675 77.042C40.0395 77.042 39.8415 76.996 39.6735 76.904C39.5095 76.812 39.3795 76.688 39.2835 76.532V78.608H38.1075V73.634H39.2835V74.102ZM40.5075 75.314C40.5075 75.094 40.4475 74.924 40.3275 74.804C40.2115 74.68 40.0675 74.618 39.8955 74.618C39.7235 74.618 39.5775 74.68 39.4575 74.804C39.3415 74.928 39.2835 75.098 39.2835 75.314C39.2835 75.534 39.3415 75.706 39.4575 75.83C39.5775 75.954 39.7235 76.016 39.8955 76.016C40.0675 76.016 40.2115 75.954 40.3275 75.83C40.4475 75.702 40.5075 75.53 40.5075 75.314ZM47.252 77H46.076L44.51 74.636V77H43.334V72.77H44.51L46.076 75.164V72.77H47.252V77ZM47.7299 75.314C47.7299 74.966 47.7919 74.662 47.9159 74.402C48.0439 74.142 48.2159 73.942 48.4319 73.802C48.6519 73.662 48.8959 73.592 49.1639 73.592C49.3959 73.592 49.5959 73.638 49.7639 73.73C49.9319 73.822 50.0619 73.946 50.1539 74.102V73.634H51.3299V77H50.1539V76.532C50.0619 76.688 49.9299 76.812 49.7579 76.904C49.5899 76.996 49.3919 77.042 49.1639 77.042C48.8959 77.042 48.6519 76.972 48.4319 76.832C48.2159 76.692 48.0439 76.492 47.9159 76.232C47.7919 75.968 47.7299 75.662 47.7299 75.314ZM50.1539 75.314C50.1539 75.098 50.0939 74.928 49.9739 74.804C49.8579 74.68 49.7139 74.618 49.5419 74.618C49.3659 74.618 49.2199 74.68 49.1039 74.804C48.9879 74.924 48.9299 75.094 48.9299 75.314C48.9299 75.53 48.9879 75.702 49.1039 75.83C49.2199 75.954 49.3659 76.016 49.5419 76.016C49.7139 76.016 49.8579 75.954 49.9739 75.83C50.0939 75.706 50.1539 75.534 50.1539 75.314ZM54.1061 77L53.1761 75.62V77H52.0001V72.56H53.1761V74.954L54.1061 73.634H55.5161L54.1901 75.326L55.5401 77H54.1061ZM57.3188 77.042C57.0148 77.042 56.7428 76.992 56.5028 76.892C56.2668 76.788 56.0788 76.648 55.9388 76.472C55.8028 76.292 55.7268 76.09 55.7108 75.866H56.8508C56.8668 75.974 56.9168 76.058 57.0008 76.118C57.0848 76.178 57.1888 76.208 57.3128 76.208C57.4088 76.208 57.4848 76.188 57.5408 76.148C57.5968 76.108 57.6248 76.056 57.6248 75.992C57.6248 75.908 57.5788 75.846 57.4868 75.806C57.3948 75.766 57.2428 75.722 57.0308 75.674C56.7908 75.626 56.5908 75.572 56.4308 75.512C56.2708 75.452 56.1308 75.354 56.0108 75.218C55.8948 75.082 55.8368 74.898 55.8368 74.666C55.8368 74.466 55.8908 74.286 55.9988 74.126C56.1068 73.962 56.2648 73.832 56.4728 73.736C56.6848 73.64 56.9388 73.592 57.2348 73.592C57.6748 73.592 58.0208 73.7 58.2728 73.916C58.5248 74.132 58.6708 74.416 58.7108 74.768H57.6488C57.6288 74.66 57.5808 74.578 57.5048 74.522C57.4328 74.462 57.3348 74.432 57.2108 74.432C57.1148 74.432 57.0408 74.45 56.9888 74.486C56.9408 74.522 56.9168 74.572 56.9168 74.636C56.9168 74.716 56.9628 74.778 57.0548 74.822C57.1468 74.862 57.2948 74.904 57.4988 74.948C57.7428 75 57.9448 75.058 58.1048 75.122C58.2688 75.186 58.4108 75.29 58.5308 75.434C58.6548 75.574 58.7168 75.766 58.7168 76.01C58.7168 76.206 58.6588 76.382 58.5428 76.538C58.4308 76.694 58.2688 76.818 58.0568 76.91C57.8488 76.998 57.6028 77.042 57.3188 77.042ZM62.9454 77L61.6194 75.146V77H60.4434V72.77H61.6194V74.594L62.9334 72.77H64.2894L62.7354 74.822L64.3674 77H62.9454ZM66.3629 77.042C66.0269 77.042 65.7249 76.972 65.4569 76.832C65.1929 76.692 64.9849 76.492 64.8329 76.232C64.6809 75.972 64.6049 75.666 64.6049 75.314C64.6049 74.966 64.6809 74.662 64.8329 74.402C64.9889 74.142 65.1989 73.942 65.4629 73.802C65.7309 73.662 66.0329 73.592 66.3689 73.592C66.7049 73.592 67.0049 73.662 67.2689 73.802C67.5369 73.942 67.7469 74.142 67.8989 74.402C68.0549 74.662 68.1329 74.966 68.1329 75.314C68.1329 75.662 68.0549 75.968 67.8989 76.232C67.7469 76.492 67.5369 76.692 67.2689 76.832C67.0009 76.972 66.6989 77.042 66.3629 77.042ZM66.3629 76.022C66.5269 76.022 66.6629 75.962 66.7709 75.842C66.8829 75.718 66.9389 75.542 66.9389 75.314C66.9389 75.086 66.8829 74.912 66.7709 74.792C66.6629 74.672 66.5289 74.612 66.3689 74.612C66.2089 74.612 66.0749 74.672 65.9669 74.792C65.8589 74.912 65.8049 75.086 65.8049 75.314C65.8049 75.546 65.8569 75.722 65.9609 75.842C66.0649 75.962 66.1989 76.022 66.3629 76.022ZM70.0454 77.042C69.7414 77.042 69.4694 76.992 69.2294 76.892C68.9934 76.788 68.8054 76.648 68.6654 76.472C68.5294 76.292 68.4534 76.09 68.4374 75.866H69.5774C69.5934 75.974 69.6434 76.058 69.7274 76.118C69.8114 76.178 69.9154 76.208 70.0394 76.208C70.1354 76.208 70.2114 76.188 70.2674 76.148C70.3234 76.108 70.3514 76.056 70.3514 75.992C70.3514 75.908 70.3054 75.846 70.2134 75.806C70.1214 75.766 69.9694 75.722 69.7574 75.674C69.5174 75.626 69.3174 75.572 69.1574 75.512C68.9974 75.452 68.8574 75.354 68.7374 75.218C68.6214 75.082 68.5634 74.898 68.5634 74.666C68.5634 74.466 68.6174 74.286 68.7254 74.126C68.8334 73.962 68.9914 73.832 69.1994 73.736C69.4114 73.64 69.6654 73.592 69.9614 73.592C70.4014 73.592 70.7474 73.7 70.9994 73.916C71.2514 74.132 71.3974 74.416 71.4374 74.768H70.3754C70.3554 74.66 70.3074 74.578 70.2314 74.522C70.1594 74.462 70.0614 74.432 69.9374 74.432C69.8414 74.432 69.7674 74.45 69.7154 74.486C69.6674 74.522 69.6434 74.572 69.6434 74.636C69.6434 74.716 69.6894 74.778 69.7814 74.822C69.8734 74.862 70.0214 74.904 70.2254 74.948C70.4694 75 70.6714 75.058 70.8314 75.122C70.9954 75.186 71.1374 75.29 71.2574 75.434C71.3814 75.574 71.4434 75.766 71.4434 76.01C71.4434 76.206 71.3854 76.382 71.2694 76.538C71.1574 76.694 70.9954 76.818 70.7834 76.91C70.5754 76.998 70.3294 77.042 70.0454 77.042ZM74.0075 75.998V77H73.4975C72.6375 77 72.2075 76.574 72.2075 75.722V74.612H71.7935V73.634H72.2075V72.818H73.3895V73.634H74.0015V74.612H73.3895V75.74C73.3895 75.832 73.4095 75.898 73.4495 75.938C73.4935 75.978 73.5655 75.998 73.6655 75.998H74.0075Z" fill="#F1B800"/>
<g filter="url(#filter4_d_169_775)">
<path d="M19.8604 70.5622H35.5406L50.8603 68.3253L66.1801 70.5622H81.8603" stroke="white"/>
</g>
<g filter="url(#filter5_d_169_775)">
<path d="M19.8604 80.3229L35.1801 79.9162L50.8603 80.7296L66.7208 79.9162L81.8603 80.3229" stroke="white"/>
</g>
<path d="M31.283 36.4402C31.6267 36.9006 31.8057 37.4417 31.7967 37.9933C31.7967 39.4269 30.8955 39.4269 30.8955 40.8525C30.8955 42.2782 31.7967 42.2861 31.7967 43.7197C31.7967 45.1534 30.8955 45.1534 30.8955 46.5949C30.8955 48.0365 31.7967 48.0286 31.7967 49.4622" stroke="#575761" stroke-linecap="round" stroke-linejoin="round"/>
<path d="M32.9397 36.6726C33.2835 37.133 33.4624 37.6742 33.4534 38.2257C33.4534 39.6593 32.5522 39.6593 32.5522 41.0849C32.5522 42.5106 33.4534 42.5186 33.4534 43.9522C33.4534 45.3858 32.5522 45.3858 32.5522 46.8274C32.5522 48.2689 33.4534 48.261 33.4534 49.6946" stroke="#575761" stroke-linecap="round" stroke-linejoin="round"/>
<path d="M29.5125 36.0335C29.937 36.6097 30.1825 37.2744 30.2244 37.9609C30.2244 39.3945 29.3232 39.3945 29.3232 40.8202C29.3232 42.2458 30.2244 42.2538 30.2244 43.6874C30.2244 45.121 29.3232 45.121 29.3232 46.5626C29.3232 48.0042 30.2244 47.9962 30.2244 49.4298" stroke="#575761" stroke-linecap="round" stroke-linejoin="round"/>
<defs>
<filter id="filter0_dddd_169_775" x="0" y="0" width="101" height="92.4528" filterUnits="userSpaceOnUse" color-interpolation-filters="sRGB">
<feFlood flood-opacity="0" result="BackgroundImageFix"/>
<feColorMatrix in="SourceAlpha" type="matrix" values="0 0 0 0 0 0 0 0 0 0 0 0 0 0 0 0 0 0 127 0" result="hardAlpha"/>
<feOffset dy="4"/>
<feGaussianBlur stdDeviation="2"/>
<feComposite in2="hardAlpha" operator="out"/>
<feColorMatrix type="matrix" values="0 0 0 0 0 0 0 0 0 0 0 0 0 0 0 0 0 0 0.25 0"/>
<feBlend mode="normal" in2="BackgroundImageFix" result="effect1_dropShadow_169_775"/>
<feColorMatrix in="SourceAlpha" type="matrix" values="0 0 0 0 0 0 0 0 0 0 0 0 0 0 0 0 0 0 127 0" result="hardAlpha"/>
<feOffset dy="4"/>
<feGaussianBlur stdDeviation="2"/>
<feComposite in2="hardAlpha" operator="out"/>
<feColorMatrix type="matrix" values="0 0 0 0 0 0 0 0 0 0 0 0 0 0 0 0 0 0 0.25 0"/>
<feBlend mode="normal" in2="effect1_dropShadow_169_775" result="effect2_dropShadow_169_775"/>
<feColorMatrix in="SourceAlpha" type="matrix" values="0 0 0 0 0 0 0 0 0 0 0 0 0 0 0 0 0 0 127 0" result="hardAlpha"/>
<feOffset dy="4"/>
<feGaussianBlur stdDeviation="2"/>
<feComposite in2="hardAlpha" operator="out"/>
<feColorMatrix type="matrix" values="0 0 0 0 0 0 0 0 0 0 0 0 0 0 0 0 0 0 0.25 0"/>
<feBlend mode="normal" in2="effect2_dropShadow_169_775" result="effect3_dropShadow_169_775"/>
<feColorMatrix in="SourceAlpha" type="matrix" values="0 0 0 0 0 0 0 0 0 0 0 0 0 0 0 0 0 0 127 0" result="hardAlpha"/>
<feOffset dy="4"/>
<feGaussianBlur stdDeviation="2"/>
<feComposite in2="hardAlpha" operator="out"/>
<feColorMatrix type="matrix" values="0 0 0 0 0 0 0 0 0 0 0 0 0 0 0 0 0 0 0.25 0"/>
<feBlend mode="normal" in2="effect3_dropShadow_169_775" result="effect4_dropShadow_169_775"/>
<feBlend mode="normal" in="SourceGraphic" in2="effect4_dropShadow_169_775" result="shape"/>
</filter>
<filter id="filter1_d_169_775" x="10.4539" y="0" width="80.093" height="89.3397" filterUnits="userSpaceOnUse" color-interpolation-filters="sRGB">
<feFlood flood-opacity="0" result="BackgroundImageFix"/>
<feColorMatrix in="SourceAlpha" type="matrix" values="0 0 0 0 0 0 0 0 0 0 0 0 0 0 0 0 0 0 127 0" result="hardAlpha"/>
<feOffset dy="4"/>
<feGaussianBlur stdDeviation="2"/>
<feComposite in2="hardAlpha" operator="out"/>
<feColorMatrix type="matrix" values="0 0 0 0 0 0 0 0 0 0 0 0 0 0 0 0 0 0 0.25 0"/>
<feBlend mode="normal" in2="BackgroundImageFix" result="effect1_dropShadow_169_775"/>
<feBlend mode="normal" in="SourceGraphic" in2="effect1_dropShadow_169_775" result="shape"/>
</filter>
<filter id="filter2_d_169_775" x="0" y="13.8775" width="101" height="78.5753" filterUnits="userSpaceOnUse" color-interpolation-filters="sRGB">
<feFlood flood-opacity="0" result="BackgroundImageFix"/>
<feColorMatrix in="SourceAlpha" type="matrix" values="0 0 0 0 0 0 0 0 0 0 0 0 0 0 0 0 0 0 127 0" result="hardAlpha"/>
<feOffset dy="4"/>
<feGaussianBlur stdDeviation="2"/>
<feComposite in2="hardAlpha" operator="out"/>
<feColorMatrix type="matrix" values="0 0 0 0 0 0 0 0 0 0 0 0 0 0 0 0 0 0 0.25 0"/>
<feBlend mode="normal" in2="BackgroundImageFix" result="effect1_dropShadow_169_775"/>
<feBlend mode="normal" in="SourceGraphic" in2="effect1_dropShadow_169_775" result="shape"/>
</filter>
<filter id="filter3_ddd_169_775" x="25.5171" y="13.8775" width="50.2014" height="62.3537" filterUnits="userSpaceOnUse" color-interpolation-filters="sRGB">
<feFlood flood-opacity="0" result="BackgroundImageFix"/>
<feColorMatrix in="SourceAlpha" type="matrix" values="0 0 0 0 0 0 0 0 0 0 0 0 0 0 0 0 0 0 127 0" result="hardAlpha"/>
<feOffset dy="4"/>
<feGaussianBlur stdDeviation="2"/>
<feComposite in2="hardAlpha" operator="out"/>
<feColorMatrix type="matrix" values="0 0 0 0 0 0 0 0 0 0 0 0 0 0 0 0 0 0 0.25 0"/>
<feBlend mode="normal" in2="BackgroundImageFix" result="effect1_dropShadow_169_775"/>
<feColorMatrix in="SourceAlpha" type="matrix" values="0 0 0 0 0 0 0 0 0 0 0 0 0 0 0 0 0 0 127 0" result="hardAlpha"/>
<feOffset dy="4"/>
<feGaussianBlur stdDeviation="2"/>
<feComposite in2="hardAlpha" operator="out"/>
<feColorMatrix type="matrix" values="0 0 0 0 0 0 0 0 0 0 0 0 0 0 0 0 0 0 0.25 0"/>
<feBlend mode="normal" in2="effect1_dropShadow_169_775" result="effect2_dropShadow_169_775"/>
<feColorMatrix in="SourceAlpha" type="matrix" values="0 0 0 0 0 0 0 0 0 0 0 0 0 0 0 0 0 0 127 0" result="hardAlpha"/>
<feOffset dy="4"/>
<feGaussianBlur stdDeviation="2"/>
<feComposite in2="hardAlpha" operator="out"/>
<feColorMatrix type="matrix" values="0 0 0 0 0 0 0 0 0 0 0 0 0 0 0 0 0 0 0.25 0"/>
<feBlend mode="normal" in2="effect2_dropShadow_169_775" result="effect3_dropShadow_169_775"/>
<feBlend mode="normal" in="SourceGraphic" in2="effect3_dropShadow_169_775" result="shape"/>
</filter>
<filter id="filter4_d_169_775" x="15.8604" y="67.8201" width="70" height="11.2421" filterUnits="userSpaceOnUse" color-interpolation-filters="sRGB">
<feFlood flood-opacity="0" result="BackgroundImageFix"/>
<feColorMatrix in="SourceAlpha" type="matrix" values="0 0 0 0 0 0 0 0 0 0 0 0 0 0 0 0 0 0 127 0" result="hardAlpha"/>
<feOffset dy="4"/>
<feGaussianBlur stdDeviation="2"/>
<feComposite in2="hardAlpha" operator="out"/>
<feColorMatrix type="matrix" values="0 0 0 0 0 0 0 0 0 0 0 0 0 0 0 0 0 0 0.25 0"/>
<feBlend mode="normal" in2="BackgroundImageFix" result="effect1_dropShadow_169_775"/>
<feBlend mode="normal" in="SourceGraphic" in2="effect1_dropShadow_169_775" result="shape"/>
</filter>
<filter id="filter5_d_169_775" x="15.8472" y="79.4159" width="70.0266" height="9.81441" filterUnits="userSpaceOnUse" color-interpolation-filters="sRGB">
<feFlood flood-opacity="0" result="BackgroundImageFix"/>
<feColorMatrix in="SourceAlpha" type="matrix" values="0 0 0 0 0 0 0 0 0 0 0 0 0 0 0 0 0 0 127 0" result="hardAlpha"/>
<feOffset dy="4"/>
<feGaussianBlur stdDeviation="2"/>
<feComposite in2="hardAlpha" operator="out"/>
<feColorMatrix type="matrix" values="0 0 0 0 0 0 0 0 0 0 0 0 0 0 0 0 0 0 0.25 0"/>
<feBlend mode="normal" in2="BackgroundImageFix" result="effect1_dropShadow_169_775"/>
<feBlend mode="normal" in="SourceGraphic" in2="effect1_dropShadow_169_775" result="shape"/>
</filter>
<clipPath id="clip0_169_775">
<rect width="42.2015" height="54.3537" fill="white" transform="translate(29.5171 13.8775)"/>
</clipPath>
</defs>
</svg>
